  0
SECTION
  2
BLOCKS
  0
ENDSEC
  0
SECTION
  2
ENTITIES
  0
LINE
  8
0
 10
68.2811
 20
-72.3117
 11
79.5582
 21
-59.8358
  0
LINE
  8
0
 10
79.5582
 20
-59.8358
 11
79.5394
 21
-58.9909
  0
LINE
  8
0
 10
79.5394
 20
-58.9909
 11
78.9839
 21
-56.0993
  0
LINE
  8
0
 10
78.9839
 20
-56.0993
 11
78.3708
 21
-50.1497
  0
LINE
  8
0
 10
78.3708
 20
-50.1497
 11
76.8996
 21
-48.3557
  0
LINE
  8
0
 10
76.8996
 20
-48.3557
 11
65.4047
 21
-38.7103
  0
LINE
  8
0
 10
65.4047
 20
-38.7103
 11
62.2581
 21
-42.042
  0
LINE
  8
0
 10
62.2581
 20
-42.042
 11
63.7293
 21
-43.8359
  0
LINE
  8
0
 10
63.7293
 20
-43.8359
 11
74.0036
 21
-52.4571
  0
LINE
  8
0
 10
74.0036
 20
-52.4571
 11
75.2561
 21
-55.9108
  0
LINE
  8
0
 10
75.2561
 20
-55.9108
 11
64.1439
 21
-68.2663
  0
LINE
  8
0
 10
64.1439
 20
-68.2663
 11
60.8046
 21
-67.3034
  0
LINE
  8
0
 10
60.8046
 20
-67.3034
 11
57.2704
 21
-64.536
  0
LINE
  8
0
 10
57.2704
 20
-64.536
 11
50.7413
 21
-59.0574
  0
LINE
  8
0
 10
50.7413
 20
-59.0574
 11
46.4536
 21
-57.9576
  0
LINE
  8
0
 10
46.4536
 20
-57.9576
 11
40.226
 21
-55.0536
  0
LINE
  8
0
 10
40.226
 20
-55.0536
 11
40.3625
 21
-54.8777
  0
LINE
  8
0
 10
40.3625
 20
-54.8777
 11
40.5126
 21
-54.6569
  0
LINE
  8
0
 10
40.5126
 20
-54.6569
 11
40.6485
 21
-54.4271
  0
LINE
  8
0
 10
40.6485
 20
-54.4271
 11
40.7697
 21
-54.1892
  0
LINE
  8
0
 10
40.7697
 20
-54.1892
 11
40.8757
 21
-53.9442
  0
LINE
  8
0
 10
40.8757
 20
-53.9442
 11
40.9662
 21
-53.6929
  0
LINE
  8
0
 10
40.9662
 20
-53.6929
 11
41.0406
 21
-53.4366
  0
LINE
  8
0
 10
41.0406
 20
-53.4366
 11
41.0989
 21
-53.176
  0
LINE
  8
0
 10
41.0989
 20
-53.176
 11
41.1407
 21
-52.9123
  0
LINE
  8
0
 10
41.1407
 20
-52.9123
 11
41.1658
 21
-52.6465
  0
LINE
  8
0
 10
41.1658
 20
-52.6465
 11
41.1742
 21
-52.3796
  0
LINE
  8
0
 10
41.1742
 20
-52.3796
 11
41.1658
 21
-52.1128
  0
LINE
  8
0
 10
41.1658
 20
-52.1128
 11
41.1407
 21
-51.847
  0
LINE
  8
0
 10
41.1407
 20
-51.847
 11
41.0989
 21
-51.5833
  0
LINE
  8
0
 10
41.0989
 20
-51.5833
 11
41.0406
 21
-51.3227
  0
LINE
  8
0
 10
41.0406
 20
-51.3227
 11
40.9662
 21
-51.0663
  0
LINE
  8
0
 10
40.9662
 20
-51.0663
 11
40.8757
 21
-50.8151
  0
LINE
  8
0
 10
40.8757
 20
-50.8151
 11
40.7697
 21
-50.5701
  0
LINE
  8
0
 10
40.7697
 20
-50.5701
 11
40.6485
 21
-50.3322
  0
LINE
  8
0
 10
40.6485
 20
-50.3322
 11
40.5126
 21
-50.1024
  0
LINE
  8
0
 10
40.5126
 20
-50.1024
 11
40.3625
 21
-49.8815
  0
LINE
  8
0
 10
40.3625
 20
-49.8815
 11
40.1989
 21
-49.6706
  0
LINE
  8
0
 10
40.1989
 20
-49.6706
 11
40.0223
 21
-49.4703
  0
LINE
  8
0
 10
40.0223
 20
-49.4703
 11
39.8335
 21
-49.2815
  0
LINE
  8
0
 10
39.8335
 20
-49.2815
 11
39.6332
 21
-49.1049
  0
LINE
  8
0
 10
39.6332
 20
-49.1049
 11
39.4223
 21
-48.9413
  0
LINE
  8
0
 10
39.4223
 20
-48.9413
 11
39.2014
 21
-48.7912
  0
LINE
  8
0
 10
39.2014
 20
-48.7912
 11
38.9716
 21
-48.6553
  0
LINE
  8
0
 10
38.9716
 20
-48.6553
 11
38.7337
 21
-48.5341
  0
LINE
  8
0
 10
38.7337
 20
-48.5341
 11
38.4887
 21
-48.4281
  0
LINE
  8
0
 10
38.4887
 20
-48.4281
 11
38.2375
 21
-48.3376
  0
LINE
  8
0
 10
38.2375
 20
-48.3376
 11
37.9811
 21
-48.2632
  0
LINE
  8
0
 10
37.9811
 20
-48.2632
 11
37.7205
 21
-48.2049
  0
LINE
  8
0
 10
37.7205
 20
-48.2049
 11
37.4568
 21
-48.1631
  0
LINE
  8
0
 10
37.4568
 20
-48.1631
 11
37.191
 21
-48.138
  0
LINE
  8
0
 10
37.191
 20
-48.138
 11
36.9242
 21
-48.1296
  0
LINE
  8
0
 10
36.9242
 20
-48.1296
 11
36.6573
 21
-48.138
  0
LINE
  8
0
 10
36.6573
 20
-48.138
 11
36.3915
 21
-48.1631
  0
LINE
  8
0
 10
36.3915
 20
-48.1631
 11
36.1278
 21
-48.2049
  0
LINE
  8
0
 10
36.1278
 20
-48.2049
 11
35.8672
 21
-48.2632
  0
LINE
  8
0
 10
35.8672
 20
-48.2632
 11
35.6109
 21
-48.3376
  0
LINE
  8
0
 10
35.6109
 20
-48.3376
 11
35.3596
 21
-48.4281
  0
LINE
  8
0
 10
35.3596
 20
-48.4281
 11
35.1146
 21
-48.5341
  0
LINE
  8
0
 10
35.1146
 20
-48.5341
 11
34.8767
 21
-48.6553
  0
LINE
  8
0
 10
34.8767
 20
-48.6553
 11
34.6469
 21
-48.7912
  0
LINE
  8
0
 10
34.6469
 20
-48.7912
 11
34.4261
 21
-48.9413
  0
LINE
  8
0
 10
34.4261
 20
-48.9413
 11
34.2151
 21
-49.1049
  0
LINE
  8
0
 10
34.2151
 20
-49.1049
 11
34.0148
 21
-49.2815
  0
LINE
  8
0
 10
34.0148
 20
-49.2815
 11
33.826
 21
-49.4703
  0
LINE
  8
0
 10
33.826
 20
-49.4703
 11
33.6495
 21
-49.6706
  0
LINE
  8
0
 10
33.6495
 20
-49.6706
 11
33.4859
 21
-49.8815
  0
LINE
  8
0
 10
33.4859
 20
-49.8815
 11
33.3358
 21
-50.1024
  0
LINE
  8
0
 10
33.3358
 20
-50.1024
 11
33.1999
 21
-50.3322
  0
LINE
  8
0
 10
33.1999
 20
-50.3322
 11
33.0787
 21
-50.5701
  0
LINE
  8
0
 10
33.0787
 20
-50.5701
 11
32.9726
 21
-50.8151
  0
LINE
  8
0
 10
32.9726
 20
-50.8151
 11
32.8822
 21
-51.0663
  0
LINE
  8
0
 10
32.8822
 20
-51.0663
 11
32.8077
 21
-51.3227
  0
LINE
  8
0
 10
32.8077
 20
-51.3227
 11
32.7527
 21
-51.5687
  0
LINE
  8
0
 10
32.7527
 20
-51.5687
 11
31.4369
 21
-50.9552
  0
LINE
  8
0
 10
31.4369
 20
-50.9552
 11
30.8147
 21
-51.227
  0
LINE
  8
0
 10
30.8147
 20
-51.227
 11
13.7873
 21
-48.2246
  0
LINE
  8
0
 10
13.7873
 20
-48.2246
 11
-11.363
 21
-33.6205
  0
LINE
  8
0
 10
-11.363
 20
-33.6205
 11
-15.44
 21
-33.6205
  0
LINE
  8
0
 10
-15.44
 20
-33.6205
 11
-15.4178
 21
-33.5588
  0
LINE
  8
0
 10
-15.4178
 20
-33.5588
 11
-15.3433
 21
-33.3024
  0
LINE
  8
0
 10
-15.3433
 20
-33.3024
 11
-15.285
 21
-33.0418
  0
LINE
  8
0
 10
-15.285
 20
-33.0418
 11
-15.2433
 21
-32.7781
  0
LINE
  8
0
 10
-15.2433
 20
-32.7781
 11
-15.2181
 21
-32.5123
  0
LINE
  8
0
 10
-15.2181
 20
-32.5123
 11
-15.2097
 21
-32.2454
  0
LINE
  8
0
 10
-15.2097
 20
-32.2454
 11
-15.2181
 21
-31.9786
  0
LINE
  8
0
 10
-15.2181
 20
-31.9786
 11
-15.2433
 21
-31.7128
  0
LINE
  8
0
 10
-15.2433
 20
-31.7128
 11
-15.285
 21
-31.4491
  0
LINE
  8
0
 10
-15.285
 20
-31.4491
 11
-15.3433
 21
-31.1885
  0
LINE
  8
0
 10
-15.3433
 20
-31.1885
 11
-15.4178
 21
-30.9321
  0
LINE
  8
0
 10
-15.4178
 20
-30.9321
 11
-15.5082
 21
-30.6809
  0
LINE
  8
0
 10
-15.5082
 20
-30.6809
 11
-15.6142
 21
-30.4359
  0
LINE
  8
0
 10
-15.6142
 20
-30.4359
 11
-15.7354
 21
-30.198
  0
LINE
  8
0
 10
-15.7354
 20
-30.198
 11
-15.8714
 21
-29.9682
  0
LINE
  8
0
 10
-15.8714
 20
-29.9682
 11
-16.0214
 21
-29.7473
  0
LINE
  8
0
 10
-16.0214
 20
-29.7473
 11
-16.1851
 21
-29.5364
  0
LINE
  8
0
 10
-16.1851
 20
-29.5364
 11
-16.3616
 21
-29.3361
  0
LINE
  8
0
 10
-16.3616
 20
-29.3361
 11
-16.5504
 21
-29.1473
  0
LINE
  8
0
 10
-16.5504
 20
-29.1473
 11
-16.7507
 21
-28.9708
  0
LINE
  8
0
 10
-16.7507
 20
-28.9708
 11
-16.9617
 21
-28.8071
  0
LINE
  8
0
 10
-16.9617
 20
-28.8071
 11
-17.1825
 21
-28.657
  0
LINE
  8
0
 10
-17.1825
 20
-28.657
 11
-17.4123
 21
-28.5211
  0
LINE
  8
0
 10
-17.4123
 20
-28.5211
 11
-17.6502
 21
-28.3999
  0
LINE
  8
0
 10
-17.6502
 20
-28.3999
 11
-17.8952
 21
-28.2939
  0
LINE
  8
0
 10
-17.8952
 20
-28.2939
 11
-18.1464
 21
-28.2034
  0
LINE
  8
0
 10
-18.1464
 20
-28.2034
 11
-18.4028
 21
-28.129
  0
LINE
  8
0
 10
-18.4028
 20
-28.129
 11
-18.6634
 21
-28.0707
  0
LINE
  8
0
 10
-18.6634
 20
-28.0707
 11
-18.9271
 21
-28.0289
  0
LINE
  8
0
 10
-18.9271
 20
-28.0289
 11
-19.1929
 21
-28.0038
  0
LINE
  8
0
 10
-19.1929
 20
-28.0038
 11
-19.4597
 21
-27.9954
  0
LINE
  8
0
 10
-19.4597
 20
-27.9954
 11
-19.7266
 21
-28.0038
  0
LINE
  8
0
 10
-19.7266
 20
-28.0038
 11
-19.9924
 21
-28.0289
  0
LINE
  8
0
 10
-19.9924
 20
-28.0289
 11
-20.2561
 21
-28.0707
  0
LINE
  8
0
 10
-20.2561
 20
-28.0707
 11
-20.5167
 21
-28.129
  0
LINE
  8
0
 10
-20.5167
 20
-28.129
 11
-20.7731
 21
-28.2034
  0
LINE
  8
0
 10
-20.7731
 20
-28.2034
 11
-21.0243
 21
-28.2939
  0
LINE
  8
0
 10
-21.0243
 20
-28.2939
 11
-21.2693
 21
-28.3999
  0
LINE
  8
0
 10
-21.2693
 20
-28.3999
 11
-21.5072
 21
-28.5211
  0
LINE
  8
0
 10
-21.5072
 20
-28.5211
 11
-21.737
 21
-28.657
  0
LINE
  8
0
 10
-21.737
 20
-28.657
 11
-21.9578
 21
-28.8071
  0
LINE
  8
0
 10
-21.9578
 20
-28.8071
 11
-22.1688
 21
-28.9708
  0
LINE
  8
0
 10
-22.1688
 20
-28.9708
 11
-22.3691
 21
-29.1473
  0
LINE
  8
0
 10
-22.3691
 20
-29.1473
 11
-22.5579
 21
-29.3361
  0
LINE
  8
0
 10
-22.5579
 20
-29.3361
 11
-22.7344
 21
-29.5364
  0
LINE
  8
0
 10
-22.7344
 20
-29.5364
 11
-22.8981
 21
-29.7473
  0
LINE
  8
0
 10
-22.8981
 20
-29.7473
 11
-23.0481
 21
-29.9682
  0
LINE
  8
0
 10
-23.0481
 20
-29.9682
 11
-23.1841
 21
-30.198
  0
LINE
  8
0
 10
-23.1841
 20
-30.198
 11
-23.3053
 21
-30.4359
  0
LINE
  8
0
 10
-23.3053
 20
-30.4359
 11
-23.4113
 21
-30.6809
  0
LINE
  8
0
 10
-23.4113
 20
-30.6809
 11
-23.5017
 21
-30.9321
  0
LINE
  8
0
 10
-23.5017
 20
-30.9321
 11
-23.5762
 21
-31.1885
  0
LINE
  8
0
 10
-23.5762
 20
-31.1885
 11
-23.6345
 21
-31.4491
  0
LINE
  8
0
 10
-23.6345
 20
-31.4491
 11
-23.6762
 21
-31.7128
  0
LINE
  8
0
 10
-23.6762
 20
-31.7128
 11
-23.7014
 21
-31.9786
  0
LINE
  8
0
 10
-23.7014
 20
-31.9786
 11
-23.7097
 21
-32.2454
  0
LINE
  8
0
 10
-23.7097
 20
-32.2454
 11
-23.7014
 21
-32.5123
  0
LINE
  8
0
 10
-23.7014
 20
-32.5123
 11
-23.6762
 21
-32.7781
  0
LINE
  8
0
 10
-23.6762
 20
-32.7781
 11
-23.6345
 21
-33.0418
  0
LINE
  8
0
 10
-23.6345
 20
-33.0418
 11
-23.5762
 21
-33.3024
  0
LINE
  8
0
 10
-23.5762
 20
-33.3024
 11
-23.5017
 21
-33.5588
  0
LINE
  8
0
 10
-23.5017
 20
-33.5588
 11
-23.4795
 21
-33.6205
  0
LINE
  8
0
 10
-23.4795
 20
-33.6205
 11
-29.2402
 21
-33.6205
  0
LINE
  8
0
 10
-29.2402
 20
-33.6205
 11
-33.1937
 21
-39.6205
  0
LINE
  8
0
 10
-33.1937
 20
-39.6205
 11
-50.9721
 21
-39.6205
  0
LINE
  8
0
 10
-50.9721
 20
-39.6205
 11
-59.3349
 21
-39.9461
  0
LINE
  8
0
 10
-59.3349
 20
-39.9461
 11
-77.1279
 21
-39.2214
  0
LINE
  8
0
 10
-77.1279
 20
-39.2214
 11
-81.0551
 21
-37.0841
  0
LINE
  8
0
 10
-81.0551
 20
-37.0841
 11
-80.9531
 21
-32.9703
  0
LINE
  8
0
 10
-80.9531
 20
-32.9703
 11
-80.7563
 21
-33.0555
  0
LINE
  8
0
 10
-80.7563
 20
-33.0555
 11
-80.5051
 21
-33.1459
  0
LINE
  8
0
 10
-80.5051
 20
-33.1459
 11
-80.2487
 21
-33.2204
  0
LINE
  8
0
 10
-80.2487
 20
-33.2204
 11
-79.9881
 21
-33.2787
  0
LINE
  8
0
 10
-79.9881
 20
-33.2787
 11
-79.7244
 21
-33.3204
  0
LINE
  8
0
 10
-79.7244
 20
-33.3204
 11
-79.4586
 21
-33.3456
  0
LINE
  8
0
 10
-79.4586
 20
-33.3456
 11
-79.1918
 21
-33.354
  0
LINE
  8
0
 10
-79.1918
 20
-33.354
 11
-78.9249
 21
-33.3456
  0
LINE
  8
0
 10
-78.9249
 20
-33.3456
 11
-78.6591
 21
-33.3204
  0
LINE
  8
0
 10
-78.6591
 20
-33.3204
 11
-78.3954
 21
-33.2787
  0
LINE
  8
0
 10
-78.3954
 20
-33.2787
 11
-78.1348
 21
-33.2204
  0
LINE
  8
0
 10
-78.1348
 20
-33.2204
 11
-77.8784
 21
-33.1459
  0
LINE
  8
0
 10
-77.8784
 20
-33.1459
 11
-77.6272
 21
-33.0555
  0
LINE
  8
0
 10
-77.6272
 20
-33.0555
 11
-77.3822
 21
-32.9495
  0
LINE
  8
0
 10
-77.3822
 20
-32.9495
 11
-77.1443
 21
-32.8283
  0
LINE
  8
0
 10
-77.1443
 20
-32.8283
 11
-76.9145
 21
-32.6924
  0
LINE
  8
0
 10
-76.9145
 20
-32.6924
 11
-76.6937
 21
-32.5423
  0
LINE
  8
0
 10
-76.6937
 20
-32.5423
 11
-76.4827
 21
-32.3786
  0
LINE
  8
0
 10
-76.4827
 20
-32.3786
 11
-76.2825
 21
-32.2021
  0
LINE
  8
0
 10
-76.2825
 20
-32.2021
 11
-76.0937
 21
-32.0133
  0
LINE
  8
0
 10
-76.0937
 20
-32.0133
 11
-75.9171
 21
-31.813
  0
LINE
  8
0
 10
-75.9171
 20
-31.813
 11
-75.7534
 21
-31.602
  0
LINE
  8
0
 10
-75.7534
 20
-31.602
 11
-75.6034
 21
-31.3812
  0
LINE
  8
0
 10
-75.6034
 20
-31.3812
 11
-75.4675
 21
-31.1514
  0
LINE
  8
0
 10
-75.4675
 20
-31.1514
 11
-75.3463
 21
-30.9135
  0
LINE
  8
0
 10
-75.3463
 20
-30.9135
 11
-75.2402
 21
-30.6685
  0
LINE
  8
0
 10
-75.2402
 20
-30.6685
 11
-75.1498
 21
-30.4173
  0
LINE
  8
0
 10
-75.1498
 20
-30.4173
 11
-75.0753
 21
-30.1609
  0
LINE
  8
0
 10
-75.0753
 20
-30.1609
 11
-75.0171
 21
-29.9003
  0
LINE
  8
0
 10
-75.0171
 20
-29.9003
 11
-74.9753
 21
-29.6366
  0
LINE
  8
0
 10
-74.9753
 20
-29.6366
 11
-74.9502
 21
-29.3708
  0
LINE
  8
0
 10
-74.9502
 20
-29.3708
 11
-74.9418
 21
-29.104
  0
LINE
  8
0
 10
-74.9418
 20
-29.104
 11
-74.9502
 21
-28.8371
  0
LINE
  8
0
 10
-74.9502
 20
-28.8371
 11
-74.9753
 21
-28.5713
  0
LINE
  8
0
 10
-74.9753
 20
-28.5713
 11
-75.0171
 21
-28.3076
  0
LINE
  8
0
 10
-75.0171
 20
-28.3076
 11
-75.0753
 21
-28.047
  0
LINE
  8
0
 10
-75.0753
 20
-28.047
 11
-75.1498
 21
-27.7906
  0
LINE
  8
0
 10
-75.1498
 20
-27.7906
 11
-75.2402
 21
-27.5394
  0
LINE
  8
0
 10
-75.2402
 20
-27.5394
 11
-75.3463
 21
-27.2944
  0
LINE
  8
0
 10
-75.3463
 20
-27.2944
 11
-75.4675
 21
-27.0565
  0
LINE
  8
0
 10
-75.4675
 20
-27.0565
 11
-75.6034
 21
-26.8267
  0
LINE
  8
0
 10
-75.6034
 20
-26.8267
 11
-75.7534
 21
-26.6059
  0
LINE
  8
0
 10
-75.7534
 20
-26.6059
 11
-75.9171
 21
-26.3949
  0
LINE
  8
0
 10
-75.9171
 20
-26.3949
 11
-76.0937
 21
-26.1946
  0
LINE
  8
0
 10
-76.0937
 20
-26.1946
 11
-76.2825
 21
-26.0058
  0
LINE
  8
0
 10
-76.2825
 20
-26.0058
 11
-76.4827
 21
-25.8293
  0
LINE
  8
0
 10
-76.4827
 20
-25.8293
 11
-76.6937
 21
-25.6656
  0
LINE
  8
0
 10
-76.6937
 20
-25.6656
 11
-76.9145
 21
-25.5156
  0
LINE
  8
0
 10
-76.9145
 20
-25.5156
 11
-77.1443
 21
-25.3797
  0
LINE
  8
0
 10
-77.1443
 20
-25.3797
 11
-77.3822
 21
-25.2584
  0
LINE
  8
0
 10
-77.3822
 20
-25.2584
 11
-77.6272
 21
-25.1524
  0
LINE
  8
0
 10
-77.6272
 20
-25.1524
 11
-77.8784
 21
-25.062
  0
LINE
  8
0
 10
-77.8784
 20
-25.062
 11
-78.1348
 21
-24.9875
  0
LINE
  8
0
 10
-78.1348
 20
-24.9875
 11
-78.3954
 21
-24.9292
  0
LINE
  8
0
 10
-78.3954
 20
-24.9292
 11
-78.6591
 21
-24.8875
  0
LINE
  8
0
 10
-78.6591
 20
-24.8875
 11
-78.9249
 21
-24.8623
  0
LINE
  8
0
 10
-78.9249
 20
-24.8623
 11
-79.1918
 21
-24.854
  0
LINE
  8
0
 10
-79.1918
 20
-24.854
 11
-79.4586
 21
-24.8623
  0
LINE
  8
0
 10
-79.4586
 20
-24.8623
 11
-79.7244
 21
-24.8875
  0
LINE
  8
0
 10
-79.7244
 20
-24.8875
 11
-79.9881
 21
-24.9292
  0
LINE
  8
0
 10
-79.9881
 20
-24.9292
 11
-80.2487
 21
-24.9875
  0
LINE
  8
0
 10
-80.2487
 20
-24.9875
 11
-80.5051
 21
-25.062
  0
LINE
  8
0
 10
-80.5051
 20
-25.062
 11
-80.7563
 21
-25.1524
  0
LINE
  8
0
 10
-80.7563
 20
-25.1524
 11
-80.7595
 21
-25.1538
  0
LINE
  8
0
 10
-80.7595
 20
-25.1538
 11
-80.6146
 21
-19.3057
  0
LINE
  8
0
 10
-80.6146
 20
-19.3057
 11
-80.5622
 21
-15.05
  0
LINE
  8
0
 10
-80.5622
 20
-15.05
 11
-80.5622
 21
3.04999
  0
LINE
  8
0
 10
-80.5622
 20
3.04999
 11
-80.6146
 21
7.30566
  0
LINE
  8
0
 10
-80.6146
 20
7.30566
 11
-80.7595
 21
13.1538
  0
LINE
  8
0
 10
-80.7595
 20
13.1538
 11
-80.7563
 21
13.1524
  0
LINE
  8
0
 10
-80.7563
 20
13.1524
 11
-80.5051
 21
13.062
  0
LINE
  8
0
 10
-80.5051
 20
13.062
 11
-80.2487
 21
12.9875
  0
LINE
  8
0
 10
-80.2487
 20
12.9875
 11
-79.9881
 21
12.9292
  0
LINE
  8
0
 10
-79.9881
 20
12.9292
 11
-79.7244
 21
12.8875
  0
LINE
  8
0
 10
-79.7244
 20
12.8875
 11
-79.4586
 21
12.8623
  0
LINE
  8
0
 10
-79.4586
 20
12.8623
 11
-79.1918
 21
12.854
  0
LINE
  8
0
 10
-79.1918
 20
12.854
 11
-78.9249
 21
12.8623
  0
LINE
  8
0
 10
-78.9249
 20
12.8623
 11
-78.6591
 21
12.8875
  0
LINE
  8
0
 10
-78.6591
 20
12.8875
 11
-78.3954
 21
12.9292
  0
LINE
  8
0
 10
-78.3954
 20
12.9292
 11
-78.1348
 21
12.9875
  0
LINE
  8
0
 10
-78.1348
 20
12.9875
 11
-77.8784
 21
13.062
  0
LINE
  8
0
 10
-77.8784
 20
13.062
 11
-77.6272
 21
13.1524
  0
LINE
  8
0
 10
-77.6272
 20
13.1524
 11
-77.3822
 21
13.2584
  0
LINE
  8
0
 10
-77.3822
 20
13.2584
 11
-77.1443
 21
13.3797
  0
LINE
  8
0
 10
-77.1443
 20
13.3797
 11
-76.9145
 21
13.5156
  0
LINE
  8
0
 10
-76.9145
 20
13.5156
 11
-76.6937
 21
13.6656
  0
LINE
  8
0
 10
-76.6937
 20
13.6656
 11
-76.4827
 21
13.8293
  0
LINE
  8
0
 10
-76.4827
 20
13.8293
 11
-76.2825
 21
14.0058
  0
LINE
  8
0
 10
-76.2825
 20
14.0058
 11
-76.0937
 21
14.1946
  0
LINE
  8
0
 10
-76.0937
 20
14.1946
 11
-75.9171
 21
14.3949
  0
LINE
  8
0
 10
-75.9171
 20
14.3949
 11
-75.7534
 21
14.6059
  0
LINE
  8
0
 10
-75.7534
 20
14.6059
 11
-75.6034
 21
14.8267
  0
LINE
  8
0
 10
-75.6034
 20
14.8267
 11
-75.4675
 21
15.0565
  0
LINE
  8
0
 10
-75.4675
 20
15.0565
 11
-75.3463
 21
15.2944
  0
LINE
  8
0
 10
-75.3463
 20
15.2944
 11
-75.2402
 21
15.5394
  0
LINE
  8
0
 10
-75.2402
 20
15.5394
 11
-75.1498
 21
15.7906
  0
LINE
  8
0
 10
-75.1498
 20
15.7906
 11
-75.0753
 21
16.047
  0
LINE
  8
0
 10
-75.0753
 20
16.047
 11
-75.0171
 21
16.3076
  0
LINE
  8
0
 10
-75.0171
 20
16.3076
 11
-74.9753
 21
16.5713
  0
LINE
  8
0
 10
-74.9753
 20
16.5713
 11
-74.9502
 21
16.8371
  0
LINE
  8
0
 10
-74.9502
 20
16.8371
 11
-74.9418
 21
17.104
  0
LINE
  8
0
 10
-74.9418
 20
17.104
 11
-74.9502
 21
17.3708
  0
LINE
  8
0
 10
-74.9502
 20
17.3708
 11
-74.9753
 21
17.6366
  0
LINE
  8
0
 10
-74.9753
 20
17.6366
 11
-75.0171
 21
17.9003
  0
LINE
  8
0
 10
-75.0171
 20
17.9003
 11
-75.0753
 21
18.1609
  0
LINE
  8
0
 10
-75.0753
 20
18.1609
 11
-75.1498
 21
18.4173
  0
LINE
  8
0
 10
-75.1498
 20
18.4173
 11
-75.2402
 21
18.6685
  0
LINE
  8
0
 10
-75.2402
 20
18.6685
 11
-75.3463
 21
18.9135
  0
LINE
  8
0
 10
-75.3463
 20
18.9135
 11
-75.4675
 21
19.1514
  0
LINE
  8
0
 10
-75.4675
 20
19.1514
 11
-75.6034
 21
19.3812
  0
LINE
  8
0
 10
-75.6034
 20
19.3812
 11
-75.7534
 21
19.602
  0
LINE
  8
0
 10
-75.7534
 20
19.602
 11
-75.9171
 21
19.813
  0
LINE
  8
0
 10
-75.9171
 20
19.813
 11
-76.0937
 21
20.0133
  0
LINE
  8
0
 10
-76.0937
 20
20.0133
 11
-76.2825
 21
20.2021
  0
LINE
  8
0
 10
-76.2825
 20
20.2021
 11
-76.4827
 21
20.3786
  0
LINE
  8
0
 10
-76.4827
 20
20.3786
 11
-76.6937
 21
20.5423
  0
LINE
  8
0
 10
-76.6937
 20
20.5423
 11
-76.9145
 21
20.6924
  0
LINE
  8
0
 10
-76.9145
 20
20.6924
 11
-77.1443
 21
20.8283
  0
LINE
  8
0
 10
-77.1443
 20
20.8283
 11
-77.3822
 21
20.9495
  0
LINE
  8
0
 10
-77.3822
 20
20.9495
 11
-77.6272
 21
21.0555
  0
LINE
  8
0
 10
-77.6272
 20
21.0555
 11
-77.8784
 21
21.1459
  0
LINE
  8
0
 10
-77.8784
 20
21.1459
 11
-78.1348
 21
21.2204
  0
LINE
  8
0
 10
-78.1348
 20
21.2204
 11
-78.3954
 21
21.2787
  0
LINE
  8
0
 10
-78.3954
 20
21.2787
 11
-78.6591
 21
21.3204
  0
LINE
  8
0
 10
-78.6591
 20
21.3204
 11
-78.9249
 21
21.3456
  0
LINE
  8
0
 10
-78.9249
 20
21.3456
 11
-79.1918
 21
21.354
  0
LINE
  8
0
 10
-79.1918
 20
21.354
 11
-79.4586
 21
21.3456
  0
LINE
  8
0
 10
-79.4586
 20
21.3456
 11
-79.7244
 21
21.3204
  0
LINE
  8
0
 10
-79.7244
 20
21.3204
 11
-79.9881
 21
21.2787
  0
LINE
  8
0
 10
-79.9881
 20
21.2787
 11
-80.2487
 21
21.2204
  0
LINE
  8
0
 10
-80.2487
 20
21.2204
 11
-80.5051
 21
21.1459
  0
LINE
  8
0
 10
-80.5051
 20
21.1459
 11
-80.7563
 21
21.0555
  0
LINE
  8
0
 10
-80.7563
 20
21.0555
 11
-80.9531
 21
20.9703
  0
LINE
  8
0
 10
-80.9531
 20
20.9703
 11
-81.0551
 21
25.0841
  0
LINE
  8
0
 10
-81.0551
 20
25.0841
 11
-77.1279
 21
27.2214
  0
LINE
  8
0
 10
-77.1279
 20
27.2214
 11
-59.3349
 21
27.9461
  0
LINE
  8
0
 10
-59.3349
 20
27.9461
 11
-50.9721
 21
27.6205
  0
LINE
  8
0
 10
-50.9721
 20
27.6205
 11
-33.0949
 21
27.6205
  0
LINE
  8
0
 10
-33.0949
 20
27.6205
 11
-32.4614
 21
28.2619
  0
LINE
  8
0
 10
-32.4614
 20
28.2619
 11
-28.9305
 21
33.6205
  0
LINE
  8
0
 10
-28.9305
 20
33.6205
 11
-23.6785
 21
33.6205
  0
LINE
  8
0
 10
-23.6785
 20
33.6205
 11
-23.6946
 21
33.5189
  0
LINE
  8
0
 10
-23.6946
 20
33.5189
 11
-23.7197
 21
33.2531
  0
LINE
  8
0
 10
-23.7197
 20
33.2531
 11
-23.7281
 21
32.9862
  0
LINE
  8
0
 10
-23.7281
 20
32.9862
 11
-23.7197
 21
32.7193
  0
LINE
  8
0
 10
-23.7197
 20
32.7193
 11
-23.6946
 21
32.4535
  0
LINE
  8
0
 10
-23.6946
 20
32.4535
 11
-23.6528
 21
32.1898
  0
LINE
  8
0
 10
-23.6528
 20
32.1898
 11
-23.5946
 21
31.9293
  0
LINE
  8
0
 10
-23.5946
 20
31.9293
 11
-23.5201
 21
31.6729
  0
LINE
  8
0
 10
-23.5201
 20
31.6729
 11
-23.4297
 21
31.4217
  0
LINE
  8
0
 10
-23.4297
 20
31.4217
 11
-23.3236
 21
31.1766
  0
LINE
  8
0
 10
-23.3236
 20
31.1766
 11
-23.2024
 21
30.9388
  0
LINE
  8
0
 10
-23.2024
 20
30.9388
 11
-23.0665
 21
30.7089
  0
LINE
  8
0
 10
-23.0665
 20
30.7089
 11
-22.9164
 21
30.4881
  0
LINE
  8
0
 10
-22.9164
 20
30.4881
 11
-22.7528
 21
30.2772
  0
LINE
  8
0
 10
-22.7528
 20
30.2772
 11
-22.5762
 21
30.0769
  0
LINE
  8
0
 10
-22.5762
 20
30.0769
 11
-22.3874
 21
29.8881
  0
LINE
  8
0
 10
-22.3874
 20
29.8881
 11
-22.1871
 21
29.7115
  0
LINE
  8
0
 10
-22.1871
 20
29.7115
 11
-21.9762
 21
29.5479
  0
LINE
  8
0
 10
-21.9762
 20
29.5479
 11
-21.7554
 21
29.3978
  0
LINE
  8
0
 10
-21.7554
 20
29.3978
 11
-21.5256
 21
29.2619
  0
LINE
  8
0
 10
-21.5256
 20
29.2619
 11
-21.2877
 21
29.1407
  0
LINE
  8
0
 10
-21.2877
 20
29.1407
 11
-21.0426
 21
29.0347
  0
LINE
  8
0
 10
-21.0426
 20
29.0347
 11
-20.7914
 21
28.9442
  0
LINE
  8
0
 10
-20.7914
 20
28.9442
 11
-20.535
 21
28.8697
  0
LINE
  8
0
 10
-20.535
 20
28.8697
 11
-20.2745
 21
28.8115
  0
LINE
  8
0
 10
-20.2745
 20
28.8115
 11
-20.0108
 21
28.7697
  0
LINE
  8
0
 10
-20.0108
 20
28.7697
 11
-19.745
 21
28.7446
  0
LINE
  8
0
 10
-19.745
 20
28.7446
 11
-19.4781
 21
28.7362
  0
LINE
  8
0
 10
-19.4781
 20
28.7362
 11
-19.2112
 21
28.7446
  0
LINE
  8
0
 10
-19.2112
 20
28.7446
 11
-18.9454
 21
28.7697
  0
LINE
  8
0
 10
-18.9454
 20
28.7697
 11
-18.6817
 21
28.8115
  0
LINE
  8
0
 10
-18.6817
 20
28.8115
 11
-18.4212
 21
28.8697
  0
LINE
  8
0
 10
-18.4212
 20
28.8697
 11
-18.1648
 21
28.9442
  0
LINE
  8
0
 10
-18.1648
 20
28.9442
 11
-17.9136
 21
29.0347
  0
LINE
  8
0
 10
-17.9136
 20
29.0347
 11
-17.6685
 21
29.1407
  0
LINE
  8
0
 10
-17.6685
 20
29.1407
 11
-17.4306
 21
29.2619
  0
LINE
  8
0
 10
-17.4306
 20
29.2619
 11
-17.2008
 21
29.3978
  0
LINE
  8
0
 10
-17.2008
 20
29.3978
 11
-16.98
 21
29.5479
  0
LINE
  8
0
 10
-16.98
 20
29.5479
 11
-16.769
 21
29.7115
  0
LINE
  8
0
 10
-16.769
 20
29.7115
 11
-16.5688
 21
29.8881
  0
LINE
  8
0
 10
-16.5688
 20
29.8881
 11
-16.38
 21
30.0769
  0
LINE
  8
0
 10
-16.38
 20
30.0769
 11
-16.2034
 21
30.2772
  0
LINE
  8
0
 10
-16.2034
 20
30.2772
 11
-16.0398
 21
30.4881
  0
LINE
  8
0
 10
-16.0398
 20
30.4881
 11
-15.8897
 21
30.7089
  0
LINE
  8
0
 10
-15.8897
 20
30.7089
 11
-15.7538
 21
30.9388
  0
LINE
  8
0
 10
-15.7538
 20
30.9388
 11
-15.6326
 21
31.1766
  0
LINE
  8
0
 10
-15.6326
 20
31.1766
 11
-15.5266
 21
31.4217
  0
LINE
  8
0
 10
-15.5266
 20
31.4217
 11
-15.4361
 21
31.6729
  0
LINE
  8
0
 10
-15.4361
 20
31.6729
 11
-15.3616
 21
31.9293
  0
LINE
  8
0
 10
-15.3616
 20
31.9293
 11
-15.3034
 21
32.1898
  0
LINE
  8
0
 10
-15.3034
 20
32.1898
 11
-15.2616
 21
32.4535
  0
LINE
  8
0
 10
-15.2616
 20
32.4535
 11
-15.2365
 21
32.7193
  0
LINE
  8
0
 10
-15.2365
 20
32.7193
 11
-15.2281
 21
32.9862
  0
LINE
  8
0
 10
-15.2281
 20
32.9862
 11
-15.2365
 21
33.2531
  0
LINE
  8
0
 10
-15.2365
 20
33.2531
 11
-15.2616
 21
33.5189
  0
LINE
  8
0
 10
-15.2616
 20
33.5189
 11
-15.2777
 21
33.6205
  0
LINE
  8
0
 10
-15.2777
 20
33.6205
 11
-11.363
 21
33.6205
  0
LINE
  8
0
 10
-11.363
 20
33.6205
 11
-8.30914
 21
36.4405
  0
LINE
  8
0
 10
-8.30914
 20
36.4405
 11
9.37047
 21
36.4405
  0
LINE
  8
0
 10
9.37047
 20
36.4405
 11
14.0625
 21
33.85
  0
LINE
  8
0
 10
14.0625
 20
33.85
 11
31.1824
 21
33.3583
  0
LINE
  8
0
 10
31.1824
 20
33.3583
 11
32.3287
 21
33.8473
  0
LINE
  8
0
 10
32.3287
 20
33.8473
 11
49.2595
 21
33.361
  0
LINE
  8
0
 10
49.2595
 20
33.361
 11
67.0712
 21
32.3207
  0
LINE
  8
0
 10
67.0712
 20
32.3207
 11
71.0712
 21
30.3207
  0
LINE
  8
0
 10
71.0712
 20
30.3207
 11
71.185
 21
25.7266
  0
LINE
  8
0
 10
71.185
 20
25.7266
 11
71.0745
 21
25.7231
  0
LINE
  8
0
 10
71.0745
 20
25.7231
 11
70.8087
 21
25.698
  0
LINE
  8
0
 10
70.8087
 20
25.698
 11
70.545
 21
25.6562
  0
LINE
  8
0
 10
70.545
 20
25.6562
 11
70.2845
 21
25.5979
  0
LINE
  8
0
 10
70.2845
 20
25.5979
 11
70.0281
 21
25.5235
  0
LINE
  8
0
 10
70.0281
 20
25.5235
 11
69.7769
 21
25.433
  0
LINE
  8
0
 10
69.7769
 20
25.433
 11
69.5318
 21
25.327
  0
LINE
  8
0
 10
69.5318
 20
25.327
 11
69.2939
 21
25.2058
  0
LINE
  8
0
 10
69.2939
 20
25.2058
 11
69.0641
 21
25.0699
  0
LINE
  8
0
 10
69.0641
 20
25.0699
 11
68.8433
 21
24.9198
  0
LINE
  8
0
 10
68.8433
 20
24.9198
 11
68.6324
 21
24.7561
  0
LINE
  8
0
 10
68.6324
 20
24.7561
 11
68.4321
 21
24.5796
  0
LINE
  8
0
 10
68.4321
 20
24.5796
 11
68.2433
 21
24.3908
  0
LINE
  8
0
 10
68.2433
 20
24.3908
 11
68.0667
 21
24.1905
  0
LINE
  8
0
 10
68.0667
 20
24.1905
 11
67.9031
 21
23.9796
  0
LINE
  8
0
 10
67.9031
 20
23.9796
 11
67.753
 21
23.7587
  0
LINE
  8
0
 10
67.753
 20
23.7587
 11
67.6171
 21
23.5289
  0
LINE
  8
0
 10
67.6171
 20
23.5289
 11
67.4959
 21
23.291
  0
LINE
  8
0
 10
67.4959
 20
23.291
 11
67.3898
 21
23.046
  0
LINE
  8
0
 10
67.3898
 20
23.046
 11
67.2994
 21
22.7948
  0
LINE
  8
0
 10
67.2994
 20
22.7948
 11
67.2249
 21
22.5384
  0
LINE
  8
0
 10
67.2249
 20
22.5384
 11
67.1667
 21
22.2778
  0
LINE
  8
0
 10
67.1667
 20
22.2778
 11
67.1249
 21
22.0141
  0
LINE
  8
0
 10
67.1249
 20
22.0141
 11
67.0998
 21
21.7483
  0
LINE
  8
0
 10
67.0998
 20
21.7483
 11
67.0914
 21
21.4815
  0
LINE
  8
0
 10
67.0914
 20
21.4815
 11
67.0998
 21
21.2146
  0
LINE
  8
0
 10
67.0998
 20
21.2146
 11
67.1249
 21
20.9488
  0
LINE
  8
0
 10
67.1249
 20
20.9488
 11
67.1667
 21
20.6851
  0
LINE
  8
0
 10
67.1667
 20
20.6851
 11
67.2249
 21
20.4245
  0
LINE
  8
0
 10
67.2249
 20
20.4245
 11
67.2994
 21
20.1682
  0
LINE
  8
0
 10
67.2994
 20
20.1682
 11
67.3898
 21
19.9169
  0
LINE
  8
0
 10
67.3898
 20
19.9169
 11
67.4959
 21
19.6719
  0
LINE
  8
0
 10
67.4959
 20
19.6719
 11
67.6171
 21
19.434
  0
LINE
  8
0
 10
67.6171
 20
19.434
 11
67.753
 21
19.2042
  0
LINE
  8
0
 10
67.753
 20
19.2042
 11
67.9031
 21
18.9834
  0
LINE
  8
0
 10
67.9031
 20
18.9834
 11
68.0667
 21
18.7724
  0
LINE
  8
0
 10
68.0667
 20
18.7724
 11
68.2433
 21
18.5721
  0
LINE
  8
0
 10
68.2433
 20
18.5721
 11
68.4321
 21
18.3834
  0
LINE
  8
0
 10
68.4321
 20
18.3834
 11
68.6324
 21
18.2068
  0
LINE
  8
0
 10
68.6324
 20
18.2068
 11
68.8433
 21
18.0432
  0
LINE
  8
0
 10
68.8433
 20
18.0432
 11
69.0641
 21
17.8931
  0
LINE
  8
0
 10
69.0641
 20
17.8931
 11
69.2939
 21
17.7572
  0
LINE
  8
0
 10
69.2939
 20
17.7572
 11
69.5318
 21
17.636
  0
LINE
  8
0
 10
69.5318
 20
17.636
 11
69.7769
 21
17.5299
  0
LINE
  8
0
 10
69.7769
 20
17.5299
 11
70.0281
 21
17.4395
  0
LINE
  8
0
 10
70.0281
 20
17.4395
 11
70.2845
 21
17.365
  0
LINE
  8
0
 10
70.2845
 20
17.365
 11
70.545
 21
17.3067
  0
LINE
  8
0
 10
70.545
 20
17.3067
 11
70.8087
 21
17.265
  0
LINE
  8
0
 10
70.8087
 20
17.265
 11
71.0745
 21
17.2399
  0
LINE
  8
0
 10
71.0745
 20
17.2399
 11
71.3414
 21
17.2315
  0
LINE
  8
0
 10
71.3414
 20
17.2315
 11
71.3954
 21
17.2332
  0
LINE
  8
0
 10
71.3954
 20
17.2332
 11
71.5116
 21
12.5423
  0
LINE
  8
0
 10
71.5116
 20
12.5423
 11
71.5559
 21
8.95
  0
LINE
  8
0
 10
71.5559
 20
8.95
 11
71.5559
 21
-7.2382
  0
LINE
  8
0
 10
71.5559
 20
-7.2382
 11
71.3414
 21
-7.23148
  0
LINE
  8
0
 10
71.3414
 20
-7.23148
 11
71.0745
 21
-7.23985
  0
LINE
  8
0
 10
71.0745
 20
-7.23985
 11
70.8087
 21
-7.26498
  0
LINE
  8
0
 10
70.8087
 20
-7.26498
 11
70.545
 21
-7.30675
  0
LINE
  8
0
 10
70.545
 20
-7.30675
 11
70.2845
 21
-7.36499
  0
LINE
  8
0
 10
70.2845
 20
-7.36499
 11
70.0281
 21
-7.43948
  0
LINE
  8
0
 10
70.0281
 20
-7.43948
 11
69.7769
 21
-7.52992
  0
LINE
  8
0
 10
69.7769
 20
-7.52992
 11
69.5318
 21
-7.63596
  0
LINE
  8
0
 10
69.5318
 20
-7.63596
 11
69.2939
 21
-7.75717
  0
LINE
  8
0
 10
69.2939
 20
-7.75717
 11
69.0641
 21
-7.89308
  0
LINE
  8
0
 10
69.0641
 20
-7.89308
 11
68.8433
 21
-8.04315
  0
LINE
  8
0
 10
68.8433
 20
-8.04315
 11
68.6324
 21
-8.20679
  0
LINE
  8
0
 10
68.6324
 20
-8.20679
 11
68.4321
 21
-8.38336
  0
LINE
  8
0
 10
68.4321
 20
-8.38336
 11
68.2433
 21
-8.57214
  0
LINE
  8
0
 10
68.2433
 20
-8.57214
 11
68.0667
 21
-8.77242
  0
LINE
  8
0
 10
68.0667
 20
-8.77242
 11
67.9031
 21
-8.98338
  0
LINE
  8
0
 10
67.9031
 20
-8.98338
 11
67.753
 21
-9.20421
  0
LINE
  8
0
 10
67.753
 20
-9.20421
 11
67.6171
 21
-9.43402
  0
LINE
  8
0
 10
67.6171
 20
-9.43402
 11
67.4959
 21
-9.67191
  0
LINE
  8
0
 10
67.4959
 20
-9.67191
 11
67.3898
 21
-9.91695
  0
LINE
  8
0
 10
67.3898
 20
-9.91695
 11
67.2994
 21
-10.1682
  0
LINE
  8
0
 10
67.2994
 20
-10.1682
 11
67.2249
 21
-10.4245
  0
LINE
  8
0
 10
67.2249
 20
-10.4245
 11
67.1667
 21
-10.6851
  0
LINE
  8
0
 10
67.1667
 20
-10.6851
 11
67.1249
 21
-10.9488
  0
LINE
  8
0
 10
67.1249
 20
-10.9488
 11
67.0998
 21
-11.2146
  0
LINE
  8
0
 10
67.0998
 20
-11.2146
 11
67.0914
 21
-11.4815
  0
LINE
  8
0
 10
67.0914
 20
-11.4815
 11
67.0998
 21
-11.7483
  0
LINE
  8
0
 10
67.0998
 20
-11.7483
 11
67.1249
 21
-12.0141
  0
LINE
  8
0
 10
67.1249
 20
-12.0141
 11
67.1667
 21
-12.2778
  0
LINE
  8
0
 10
67.1667
 20
-12.2778
 11
67.2249
 21
-12.5384
  0
LINE
  8
0
 10
67.2249
 20
-12.5384
 11
67.2994
 21
-12.7948
  0
LINE
  8
0
 10
67.2994
 20
-12.7948
 11
67.3898
 21
-13.046
  0
LINE
  8
0
 10
67.3898
 20
-13.046
 11
67.4959
 21
-13.291
  0
LINE
  8
0
 10
67.4959
 20
-13.291
 11
67.6171
 21
-13.5289
  0
LINE
  8
0
 10
67.6171
 20
-13.5289
 11
67.753
 21
-13.7587
  0
LINE
  8
0
 10
67.753
 20
-13.7587
 11
67.9031
 21
-13.9796
  0
LINE
  8
0
 10
67.9031
 20
-13.9796
 11
68.0667
 21
-14.1905
  0
LINE
  8
0
 10
68.0667
 20
-14.1905
 11
68.2433
 21
-14.3908
  0
LINE
  8
0
 10
68.2433
 20
-14.3908
 11
68.4321
 21
-14.5796
  0
LINE
  8
0
 10
68.4321
 20
-14.5796
 11
68.6324
 21
-14.7561
  0
LINE
  8
0
 10
68.6324
 20
-14.7561
 11
68.8433
 21
-14.9198
  0
LINE
  8
0
 10
68.8433
 20
-14.9198
 11
69.0641
 21
-15.0699
  0
LINE
  8
0
 10
69.0641
 20
-15.0699
 11
69.2939
 21
-15.2058
  0
LINE
  8
0
 10
69.2939
 20
-15.2058
 11
69.5318
 21
-15.327
  0
LINE
  8
0
 10
69.5318
 20
-15.327
 11
69.7769
 21
-15.433
  0
LINE
  8
0
 10
69.7769
 20
-15.433
 11
70.0281
 21
-15.5235
  0
LINE
  8
0
 10
70.0281
 20
-15.5235
 11
70.2845
 21
-15.5979
  0
LINE
  8
0
 10
70.2845
 20
-15.5979
 11
70.545
 21
-15.6562
  0
LINE
  8
0
 10
70.545
 20
-15.6562
 11
70.8087
 21
-15.698
  0
LINE
  8
0
 10
70.8087
 20
-15.698
 11
71.0745
 21
-15.7231
  0
LINE
  8
0
 10
71.0745
 20
-15.7231
 11
71.3311
 21
-15.7311
  0
LINE
  8
0
 10
71.3311
 20
-15.7311
 11
71.0712
 21
-20.3207
  0
LINE
  8
0
 10
71.0712
 20
-20.3207
 11
71.0712
 21
-20.4207
  0
LINE
  8
0
 10
71.0712
 20
-20.4207
 11
75.6712
 21
-20.4207
  0
LINE
  8
0
 10
75.6712
 20
-20.4207
 11
76.1116
 21
-12.6423
  0
LINE
  8
0
 10
76.1116
 20
-12.6423
 11
76.1559
 21
-9.04999
  0
LINE
  8
0
 10
76.1559
 20
-9.04999
 11
76.1559
 21
9.04999
  0
LINE
  8
0
 10
76.1559
 20
9.04999
 11
76.1116
 21
12.6423
  0
LINE
  8
0
 10
76.1116
 20
12.6423
 11
75.6712
 21
30.4207
  0
LINE
  8
0
 10
75.6712
 20
30.4207
 11
67.1712
 21
36.9207
  0
LINE
  8
0
 10
67.1712
 20
36.9207
 11
50.5685
 21
38.5333
  0
LINE
  8
0
 10
50.5685
 20
38.5333
 11
33.4486
 21
39.025
  0
LINE
  8
0
 10
33.4486
 20
39.025
 11
32.3023
 21
38.536
  0
LINE
  8
0
 10
32.3023
 20
38.536
 11
15.3716
 21
39.0223
  0
LINE
  8
0
 10
15.3716
 20
39.0223
 11
9.99014
 21
41.6253
  0
LINE
  8
0
 10
9.99014
 20
41.6253
 11
-7.88699
 21
41.6253
  0
LINE
  8
0
 10
-7.88699
 20
41.6253
 11
-10.9409
 21
38.8053
  0
LINE
  8
0
 10
-10.9409
 20
38.8053
 11
-28.7192
 21
38.8053
  0
LINE
  8
0
 10
-28.7192
 20
38.8053
 11
-29.3527
 21
38.1639
  0
LINE
  8
0
 10
-29.3527
 20
38.1639
 11
-32.8836
 21
32.8053
  0
LINE
  8
0
 10
-32.8836
 20
32.8053
 11
-50.3524
 21
32.8053
  0
LINE
  8
0
 10
-50.3524
 20
32.8053
 11
-59.7843
 21
33.1131
  0
LINE
  8
0
 10
-59.7843
 20
33.1131
 11
-77.7761
 21
32.3802
  0
LINE
  8
0
 10
-77.7761
 20
32.3802
 11
-86.0662
 21
25.6161
  0
LINE
  8
0
 10
-86.0662
 20
25.6161
 11
-85.6257
 21
7.83772
  0
LINE
  8
0
 10
-85.6257
 20
7.83772
 11
-85.5656
 21
2.95
  0
LINE
  8
0
 10
-85.5656
 20
2.95
 11
-85.5656
 21
-14.95
  0
LINE
  8
0
 10
-85.5656
 20
-14.95
 11
-85.6257
 21
-19.8377
  0
LINE
  8
0
 10
-85.6257
 20
-19.8377
 11
-86.0662
 21
-37.6161
  0
LINE
  8
0
 10
-86.0662
 20
-37.6161
 11
-77.7761
 21
-44.3802
  0
LINE
  8
0
 10
-77.7761
 20
-44.3802
 11
-59.7843
 21
-45.1131
  0
LINE
  8
0
 10
-59.7843
 20
-45.1131
 11
-50.3524
 21
-44.8053
  0
LINE
  8
0
 10
-50.3524
 20
-44.8053
 11
-32.574
 21
-44.8053
  0
LINE
  8
0
 10
-32.574
 20
-44.8053
 11
-28.6205
 21
-38.8053
  0
LINE
  8
0
 10
-28.6205
 20
-38.8053
 11
-10.9409
 21
-38.8053
  0
LINE
  8
0
 10
-10.9409
 20
-38.8053
 11
13.4752
 21
-53.709
  0
LINE
  8
0
 10
13.4752
 20
-53.709
 11
30.6929
 21
-56.7449
  0
LINE
  8
0
 10
30.6929
 20
-56.7449
 11
30.8218
 21
-56.4523
  0
LINE
  8
0
 10
30.8218
 20
-56.4523
 11
45.3852
 21
-63.2434
  0
LINE
  8
0
 10
45.3852
 20
-63.2434
 11
51.9873
 21
-66.6344
  0
LINE
  8
0
 10
51.9873
 20
-66.6344
 11
58.0206
 21
-71.6969
  0
LINE
  8
0
 10
58.0206
 20
-71.6969
 11
60.0086
 21
-71.6609
  0
LINE
  8
0
 10
60.0086
 20
-71.6609
 11
66.7376
 21
-72.4005
  0
LINE
  8
0
 10
66.7376
 20
-72.4005
 11
68.2811
 21
-72.3117
  0
LINE
  8
0
 10
-19.5848
 20
31.2896
 11
-19.6912
 21
31.2996
  0
LINE
  8
0
 10
-19.6912
 20
31.2996
 11
-19.7966
 21
31.3163
  0
LINE
  8
0
 10
-19.7966
 20
31.3163
 11
-19.9009
 21
31.3396
  0
LINE
  8
0
 10
-19.9009
 20
31.3396
 11
-20.0034
 21
31.3694
  0
LINE
  8
0
 10
-20.0034
 20
31.3694
 11
-20.1039
 21
31.4056
  0
LINE
  8
0
 10
-20.1039
 20
31.4056
 11
-20.2019
 21
31.448
  0
LINE
  8
0
 10
-20.2019
 20
31.448
 11
-20.2971
 21
31.4965
  0
LINE
  8
0
 10
-20.2971
 20
31.4965
 11
-20.389
 21
31.5508
  0
LINE
  8
0
 10
-20.389
 20
31.5508
 11
-20.4773
 21
31.6109
  0
LINE
  8
0
 10
-20.4773
 20
31.6109
 11
-20.5617
 21
31.6763
  0
LINE
  8
0
 10
-20.5617
 20
31.6763
 11
-20.6418
 21
31.747
  0
LINE
  8
0
 10
-20.6418
 20
31.747
 11
-20.7173
 21
31.8225
  0
LINE
  8
0
 10
-20.7173
 20
31.8225
 11
-20.788
 21
31.9026
  0
LINE
  8
0
 10
-20.788
 20
31.9026
 11
-20.8534
 21
31.987
  0
LINE
  8
0
 10
-20.8534
 20
31.987
 11
-20.9135
 21
32.0753
  0
LINE
  8
0
 10
-20.9135
 20
32.0753
 11
-20.9678
 21
32.1672
  0
LINE
  8
0
 10
-20.9678
 20
32.1672
 11
-21.0163
 21
32.2624
  0
LINE
  8
0
 10
-21.0163
 20
32.2624
 11
-21.0587
 21
32.3604
  0
LINE
  8
0
 10
-21.0587
 20
32.3604
 11
-21.0949
 21
32.4609
  0
LINE
  8
0
 10
-21.0949
 20
32.4609
 11
-21.1247
 21
32.5634
  0
LINE
  8
0
 10
-21.1247
 20
32.5634
 11
-21.148
 21
32.6677
  0
LINE
  8
0
 10
-21.148
 20
32.6677
 11
-21.1647
 21
32.7731
  0
LINE
  8
0
 10
-21.1647
 20
32.7731
 11
-21.1747
 21
32.8795
  0
LINE
  8
0
 10
-21.1747
 20
32.8795
 11
-21.1781
 21
32.9862
  0
LINE
  8
0
 10
-21.1781
 20
32.9862
 11
-21.1747
 21
33.0929
  0
LINE
  8
0
 10
-21.1747
 20
33.0929
 11
-21.1647
 21
33.1993
  0
LINE
  8
0
 10
-21.1647
 20
33.1993
 11
-21.148
 21
33.3047
  0
LINE
  8
0
 10
-21.148
 20
33.3047
 11
-21.1247
 21
33.409
  0
LINE
  8
0
 10
-21.1247
 20
33.409
 11
-21.0949
 21
33.5115
  0
LINE
  8
0
 10
-21.0949
 20
33.5115
 11
-21.0587
 21
33.612
  0
LINE
  8
0
 10
-21.0587
 20
33.612
 11
-21.0163
 21
33.71
  0
LINE
  8
0
 10
-21.0163
 20
33.71
 11
-20.9678
 21
33.8052
  0
LINE
  8
0
 10
-20.9678
 20
33.8052
 11
-20.9135
 21
33.8971
  0
LINE
  8
0
 10
-20.9135
 20
33.8971
 11
-20.8534
 21
33.9854
  0
LINE
  8
0
 10
-20.8534
 20
33.9854
 11
-20.788
 21
34.0698
  0
LINE
  8
0
 10
-20.788
 20
34.0698
 11
-20.7173
 21
34.1499
  0
LINE
  8
0
 10
-20.7173
 20
34.1499
 11
-20.6418
 21
34.2254
  0
LINE
  8
0
 10
-20.6418
 20
34.2254
 11
-20.5617
 21
34.2961
  0
LINE
  8
0
 10
-20.5617
 20
34.2961
 11
-20.4773
 21
34.3615
  0
LINE
  8
0
 10
-20.4773
 20
34.3615
 11
-20.389
 21
34.4216
  0
LINE
  8
0
 10
-20.389
 20
34.4216
 11
-20.2971
 21
34.4759
  0
LINE
  8
0
 10
-20.2971
 20
34.4759
 11
-20.2019
 21
34.5244
  0
LINE
  8
0
 10
-20.2019
 20
34.5244
 11
-20.1039
 21
34.5668
  0
LINE
  8
0
 10
-20.1039
 20
34.5668
 11
-20.0034
 21
34.603
  0
LINE
  8
0
 10
-20.0034
 20
34.603
 11
-19.9009
 21
34.6328
  0
LINE
  8
0
 10
-19.9009
 20
34.6328
 11
-19.7966
 21
34.6561
  0
LINE
  8
0
 10
-19.7966
 20
34.6561
 11
-19.6912
 21
34.6728
  0
LINE
  8
0
 10
-19.6912
 20
34.6728
 11
-19.5848
 21
34.6828
  0
LINE
  8
0
 10
-19.5848
 20
34.6828
 11
-19.4781
 21
34.6862
  0
LINE
  8
0
 10
-19.4781
 20
34.6862
 11
-19.3714
 21
34.6828
  0
LINE
  8
0
 10
-19.3714
 20
34.6828
 11
-19.265
 21
34.6728
  0
LINE
  8
0
 10
-19.265
 20
34.6728
 11
-19.1595
 21
34.6561
  0
LINE
  8
0
 10
-19.1595
 20
34.6561
 11
-19.0553
 21
34.6328
  0
LINE
  8
0
 10
-19.0553
 20
34.6328
 11
-18.9528
 21
34.603
  0
LINE
  8
0
 10
-18.9528
 20
34.603
 11
-18.8523
 21
34.5668
  0
LINE
  8
0
 10
-18.8523
 20
34.5668
 11
-18.7543
 21
34.5244
  0
LINE
  8
0
 10
-18.7543
 20
34.5244
 11
-18.6591
 21
34.4759
  0
LINE
  8
0
 10
-18.6591
 20
34.4759
 11
-18.5672
 21
34.4216
  0
LINE
  8
0
 10
-18.5672
 20
34.4216
 11
-18.4789
 21
34.3615
  0
LINE
  8
0
 10
-18.4789
 20
34.3615
 11
-18.3945
 21
34.2961
  0
LINE
  8
0
 10
-18.3945
 20
34.2961
 11
-18.3144
 21
34.2254
  0
LINE
  8
0
 10
-18.3144
 20
34.2254
 11
-18.2389
 21
34.1499
  0
LINE
  8
0
 10
-18.2389
 20
34.1499
 11
-18.1682
 21
34.0698
  0
LINE
  8
0
 10
-18.1682
 20
34.0698
 11
-18.1028
 21
33.9854
  0
LINE
  8
0
 10
-18.1028
 20
33.9854
 11
-18.0427
 21
33.8971
  0
LINE
  8
0
 10
-18.0427
 20
33.8971
 11
-17.9884
 21
33.8052
  0
LINE
  8
0
 10
-17.9884
 20
33.8052
 11
-17.9399
 21
33.71
  0
LINE
  8
0
 10
-17.9399
 20
33.71
 11
-17.8975
 21
33.612
  0
LINE
  8
0
 10
-17.8975
 20
33.612
 11
-17.8613
 21
33.5115
  0
LINE
  8
0
 10
-17.8613
 20
33.5115
 11
-17.8315
 21
33.409
  0
LINE
  8
0
 10
-17.8315
 20
33.409
 11
-17.8082
 21
33.3047
  0
LINE
  8
0
 10
-17.8082
 20
33.3047
 11
-17.7915
 21
33.1993
  0
LINE
  8
0
 10
-17.7915
 20
33.1993
 11
-17.7814
 21
33.0929
  0
LINE
  8
0
 10
-17.7814
 20
33.0929
 11
-17.7781
 21
32.9862
  0
LINE
  8
0
 10
-17.7781
 20
32.9862
 11
-17.7814
 21
32.8795
  0
LINE
  8
0
 10
-17.7814
 20
32.8795
 11
-17.7915
 21
32.7731
  0
LINE
  8
0
 10
-17.7915
 20
32.7731
 11
-17.8082
 21
32.6677
  0
LINE
  8
0
 10
-17.8082
 20
32.6677
 11
-17.8315
 21
32.5634
  0
LINE
  8
0
 10
-17.8315
 20
32.5634
 11
-17.8613
 21
32.4609
  0
LINE
  8
0
 10
-17.8613
 20
32.4609
 11
-17.8975
 21
32.3604
  0
LINE
  8
0
 10
-17.8975
 20
32.3604
 11
-17.9399
 21
32.2624
  0
LINE
  8
0
 10
-17.9399
 20
32.2624
 11
-17.9884
 21
32.1672
  0
LINE
  8
0
 10
-17.9884
 20
32.1672
 11
-18.0427
 21
32.0753
  0
LINE
  8
0
 10
-18.0427
 20
32.0753
 11
-18.1028
 21
31.987
  0
LINE
  8
0
 10
-18.1028
 20
31.987
 11
-18.1682
 21
31.9026
  0
LINE
  8
0
 10
-18.1682
 20
31.9026
 11
-18.2389
 21
31.8225
  0
LINE
  8
0
 10
-18.2389
 20
31.8225
 11
-18.3144
 21
31.747
  0
LINE
  8
0
 10
-18.3144
 20
31.747
 11
-18.3945
 21
31.6763
  0
LINE
  8
0
 10
-18.3945
 20
31.6763
 11
-18.4789
 21
31.6109
  0
LINE
  8
0
 10
-18.4789
 20
31.6109
 11
-18.5672
 21
31.5508
  0
LINE
  8
0
 10
-18.5672
 20
31.5508
 11
-18.6591
 21
31.4965
  0
LINE
  8
0
 10
-18.6591
 20
31.4965
 11
-18.7543
 21
31.448
  0
LINE
  8
0
 10
-18.7543
 20
31.448
 11
-18.8523
 21
31.4056
  0
LINE
  8
0
 10
-18.8523
 20
31.4056
 11
-18.9528
 21
31.3694
  0
LINE
  8
0
 10
-18.9528
 20
31.3694
 11
-19.0553
 21
31.3396
  0
LINE
  8
0
 10
-19.0553
 20
31.3396
 11
-19.1595
 21
31.3163
  0
LINE
  8
0
 10
-19.1595
 20
31.3163
 11
-19.265
 21
31.2996
  0
LINE
  8
0
 10
-19.265
 20
31.2996
 11
-19.3714
 21
31.2896
  0
LINE
  8
0
 10
-19.3714
 20
31.2896
 11
-19.4781
 21
31.2862
  0
LINE
  8
0
 10
-19.4781
 20
31.2862
 11
-19.5848
 21
31.2896
  0
LINE
  8
0
 10
71.2346
 20
19.7848
 11
71.1283
 21
19.7949
  0
LINE
  8
0
 10
71.1283
 20
19.7949
 11
71.0229
 21
19.8116
  0
LINE
  8
0
 10
71.0229
 20
19.8116
 11
70.9186
 21
19.8349
  0
LINE
  8
0
 10
70.9186
 20
19.8349
 11
70.8161
 21
19.8647
  0
LINE
  8
0
 10
70.8161
 20
19.8647
 11
70.7156
 21
19.9008
  0
LINE
  8
0
 10
70.7156
 20
19.9008
 11
70.6176
 21
19.9433
  0
LINE
  8
0
 10
70.6176
 20
19.9433
 11
70.5224
 21
19.9917
  0
LINE
  8
0
 10
70.5224
 20
19.9917
 11
70.4305
 21
20.0461
  0
LINE
  8
0
 10
70.4305
 20
20.0461
 11
70.3422
 21
20.1061
  0
LINE
  8
0
 10
70.3422
 20
20.1061
 11
70.2578
 21
20.1716
  0
LINE
  8
0
 10
70.2578
 20
20.1716
 11
70.1777
 21
20.2422
  0
LINE
  8
0
 10
70.1777
 20
20.2422
 11
70.1022
 21
20.3177
  0
LINE
  8
0
 10
70.1022
 20
20.3177
 11
70.0315
 21
20.3979
  0
LINE
  8
0
 10
70.0315
 20
20.3979
 11
69.9661
 21
20.4822
  0
LINE
  8
0
 10
69.9661
 20
20.4822
 11
69.906
 21
20.5706
  0
LINE
  8
0
 10
69.906
 20
20.5706
 11
69.8517
 21
20.6625
  0
LINE
  8
0
 10
69.8517
 20
20.6625
 11
69.8032
 21
20.7576
  0
LINE
  8
0
 10
69.8032
 20
20.7576
 11
69.7608
 21
20.8557
  0
LINE
  8
0
 10
69.7608
 20
20.8557
 11
69.7246
 21
20.9561
  0
LINE
  8
0
 10
69.7246
 20
20.9561
 11
69.6948
 21
21.0587
  0
LINE
  8
0
 10
69.6948
 20
21.0587
 11
69.6715
 21
21.1629
  0
LINE
  8
0
 10
69.6715
 20
21.1629
 11
69.6548
 21
21.2684
  0
LINE
  8
0
 10
69.6548
 20
21.2684
 11
69.6448
 21
21.3747
  0
LINE
  8
0
 10
69.6448
 20
21.3747
 11
69.6414
 21
21.4815
  0
LINE
  8
0
 10
69.6414
 20
21.4815
 11
69.6448
 21
21.5882
  0
LINE
  8
0
 10
69.6448
 20
21.5882
 11
69.6548
 21
21.6945
  0
LINE
  8
0
 10
69.6548
 20
21.6945
 11
69.6715
 21
21.8
  0
LINE
  8
0
 10
69.6715
 20
21.8
 11
69.6948
 21
21.9043
  0
LINE
  8
0
 10
69.6948
 20
21.9043
 11
69.7246
 21
22.0068
  0
LINE
  8
0
 10
69.7246
 20
22.0068
 11
69.7608
 21
22.1073
  0
LINE
  8
0
 10
69.7608
 20
22.1073
 11
69.8032
 21
22.2053
  0
LINE
  8
0
 10
69.8032
 20
22.2053
 11
69.8517
 21
22.3005
  0
LINE
  8
0
 10
69.8517
 20
22.3005
 11
69.906
 21
22.3924
  0
LINE
  8
0
 10
69.906
 20
22.3924
 11
69.9661
 21
22.4807
  0
LINE
  8
0
 10
69.9661
 20
22.4807
 11
70.0315
 21
22.5651
  0
LINE
  8
0
 10
70.0315
 20
22.5651
 11
70.1022
 21
22.6452
  0
LINE
  8
0
 10
70.1022
 20
22.6452
 11
70.1777
 21
22.7207
  0
LINE
  8
0
 10
70.1777
 20
22.7207
 11
70.2578
 21
22.7914
  0
LINE
  8
0
 10
70.2578
 20
22.7914
 11
70.3422
 21
22.8568
  0
LINE
  8
0
 10
70.3422
 20
22.8568
 11
70.4305
 21
22.9168
  0
LINE
  8
0
 10
70.4305
 20
22.9168
 11
70.5224
 21
22.9712
  0
LINE
  8
0
 10
70.5224
 20
22.9712
 11
70.6176
 21
23.0197
  0
LINE
  8
0
 10
70.6176
 20
23.0197
 11
70.7156
 21
23.0621
  0
LINE
  8
0
 10
70.7156
 20
23.0621
 11
70.8161
 21
23.0983
  0
LINE
  8
0
 10
70.8161
 20
23.0983
 11
70.9186
 21
23.1281
  0
LINE
  8
0
 10
70.9186
 20
23.1281
 11
71.0229
 21
23.1514
  0
LINE
  8
0
 10
71.0229
 20
23.1514
 11
71.1283
 21
23.1681
  0
LINE
  8
0
 10
71.1283
 20
23.1681
 11
71.2346
 21
23.1781
  0
LINE
  8
0
 10
71.2346
 20
23.1781
 11
71.3414
 21
23.1815
  0
LINE
  8
0
 10
71.3414
 20
23.1815
 11
71.4482
 21
23.1781
  0
LINE
  8
0
 10
71.4482
 20
23.1781
 11
71.5545
 21
23.1681
  0
LINE
  8
0
 10
71.5545
 20
23.1681
 11
71.6599
 21
23.1514
  0
LINE
  8
0
 10
71.6599
 20
23.1514
 11
71.7642
 21
23.1281
  0
LINE
  8
0
 10
71.7642
 20
23.1281
 11
71.8667
 21
23.0983
  0
LINE
  8
0
 10
71.8667
 20
23.0983
 11
71.9672
 21
23.0621
  0
LINE
  8
0
 10
71.9672
 20
23.0621
 11
72.0652
 21
23.0197
  0
LINE
  8
0
 10
72.0652
 20
23.0197
 11
72.1604
 21
22.9712
  0
LINE
  8
0
 10
72.1604
 20
22.9712
 11
72.2523
 21
22.9168
  0
LINE
  8
0
 10
72.2523
 20
22.9168
 11
72.3406
 21
22.8568
  0
LINE
  8
0
 10
72.3406
 20
22.8568
 11
72.425
 21
22.7914
  0
LINE
  8
0
 10
72.425
 20
22.7914
 11
72.5051
 21
22.7207
  0
LINE
  8
0
 10
72.5051
 20
22.7207
 11
72.5806
 21
22.6452
  0
LINE
  8
0
 10
72.5806
 20
22.6452
 11
72.6513
 21
22.5651
  0
LINE
  8
0
 10
72.6513
 20
22.5651
 11
72.7167
 21
22.4807
  0
LINE
  8
0
 10
72.7167
 20
22.4807
 11
72.7768
 21
22.3924
  0
LINE
  8
0
 10
72.7768
 20
22.3924
 11
72.8311
 21
22.3005
  0
LINE
  8
0
 10
72.8311
 20
22.3005
 11
72.8796
 21
22.2053
  0
LINE
  8
0
 10
72.8796
 20
22.2053
 11
72.922
 21
22.1073
  0
LINE
  8
0
 10
72.922
 20
22.1073
 11
72.9582
 21
22.0068
  0
LINE
  8
0
 10
72.9582
 20
22.0068
 11
72.988
 21
21.9043
  0
LINE
  8
0
 10
72.988
 20
21.9043
 11
73.0113
 21
21.8
  0
LINE
  8
0
 10
73.0113
 20
21.8
 11
73.028
 21
21.6945
  0
LINE
  8
0
 10
73.028
 20
21.6945
 11
73.038
 21
21.5882
  0
LINE
  8
0
 10
73.038
 20
21.5882
 11
73.0414
 21
21.4815
  0
LINE
  8
0
 10
73.0414
 20
21.4815
 11
73.038
 21
21.3747
  0
LINE
  8
0
 10
73.038
 20
21.3747
 11
73.028
 21
21.2684
  0
LINE
  8
0
 10
73.028
 20
21.2684
 11
73.0113
 21
21.1629
  0
LINE
  8
0
 10
73.0113
 20
21.1629
 11
72.988
 21
21.0587
  0
LINE
  8
0
 10
72.988
 20
21.0587
 11
72.9582
 21
20.9561
  0
LINE
  8
0
 10
72.9582
 20
20.9561
 11
72.922
 21
20.8557
  0
LINE
  8
0
 10
72.922
 20
20.8557
 11
72.8796
 21
20.7576
  0
LINE
  8
0
 10
72.8796
 20
20.7576
 11
72.8311
 21
20.6625
  0
LINE
  8
0
 10
72.8311
 20
20.6625
 11
72.7768
 21
20.5706
  0
LINE
  8
0
 10
72.7768
 20
20.5706
 11
72.7167
 21
20.4822
  0
LINE
  8
0
 10
72.7167
 20
20.4822
 11
72.6513
 21
20.3979
  0
LINE
  8
0
 10
72.6513
 20
20.3979
 11
72.5806
 21
20.3177
  0
LINE
  8
0
 10
72.5806
 20
20.3177
 11
72.5051
 21
20.2422
  0
LINE
  8
0
 10
72.5051
 20
20.2422
 11
72.425
 21
20.1716
  0
LINE
  8
0
 10
72.425
 20
20.1716
 11
72.3406
 21
20.1061
  0
LINE
  8
0
 10
72.3406
 20
20.1061
 11
72.2523
 21
20.0461
  0
LINE
  8
0
 10
72.2523
 20
20.0461
 11
72.1604
 21
19.9917
  0
LINE
  8
0
 10
72.1604
 20
19.9917
 11
72.0652
 21
19.9433
  0
LINE
  8
0
 10
72.0652
 20
19.9433
 11
71.9672
 21
19.9008
  0
LINE
  8
0
 10
71.9672
 20
19.9008
 11
71.8667
 21
19.8647
  0
LINE
  8
0
 10
71.8667
 20
19.8647
 11
71.7642
 21
19.8349
  0
LINE
  8
0
 10
71.7642
 20
19.8349
 11
71.6599
 21
19.8116
  0
LINE
  8
0
 10
71.6599
 20
19.8116
 11
71.5545
 21
19.7949
  0
LINE
  8
0
 10
71.5545
 20
19.7949
 11
71.4482
 21
19.7848
  0
LINE
  8
0
 10
71.4482
 20
19.7848
 11
71.3414
 21
19.7815
  0
LINE
  8
0
 10
71.3414
 20
19.7815
 11
71.2346
 21
19.7848
  0
LINE
  8
0
 10
-79.2985
 20
15.4073
 11
-79.4048
 21
15.4174
  0
LINE
  8
0
 10
-79.4048
 20
15.4174
 11
-79.5103
 21
15.4341
  0
LINE
  8
0
 10
-79.5103
 20
15.4341
 11
-79.6145
 21
15.4574
  0
LINE
  8
0
 10
-79.6145
 20
15.4574
 11
-79.7171
 21
15.4872
  0
LINE
  8
0
 10
-79.7171
 20
15.4872
 11
-79.8176
 21
15.5233
  0
LINE
  8
0
 10
-79.8176
 20
15.5233
 11
-79.9156
 21
15.5658
  0
LINE
  8
0
 10
-79.9156
 20
15.5658
 11
-80.0108
 21
15.6142
  0
LINE
  8
0
 10
-80.0108
 20
15.6142
 11
-80.1027
 21
15.6686
  0
LINE
  8
0
 10
-80.1027
 20
15.6686
 11
-80.191
 21
15.7286
  0
LINE
  8
0
 10
-80.191
 20
15.7286
 11
-80.2754
 21
15.7941
  0
LINE
  8
0
 10
-80.2754
 20
15.7941
 11
-80.3555
 21
15.8647
  0
LINE
  8
0
 10
-80.3555
 20
15.8647
 11
-80.431
 21
15.9402
  0
LINE
  8
0
 10
-80.431
 20
15.9402
 11
-80.5016
 21
16.0203
  0
LINE
  8
0
 10
-80.5016
 20
16.0203
 11
-80.5671
 21
16.1047
  0
LINE
  8
0
 10
-80.5671
 20
16.1047
 11
-80.6271
 21
16.1931
  0
LINE
  8
0
 10
-80.6271
 20
16.1931
 11
-80.6815
 21
16.285
  0
LINE
  8
0
 10
-80.6815
 20
16.285
 11
-80.73
 21
16.3801
  0
LINE
  8
0
 10
-80.73
 20
16.3801
 11
-80.7724
 21
16.4781
  0
LINE
  8
0
 10
-80.7724
 20
16.4781
 11
-80.8086
 21
16.5786
  0
LINE
  8
0
 10
-80.8086
 20
16.5786
 11
-80.8384
 21
16.6812
  0
LINE
  8
0
 10
-80.8384
 20
16.6812
 11
-80.8617
 21
16.7854
  0
LINE
  8
0
 10
-80.8617
 20
16.7854
 11
-80.8784
 21
16.8909
  0
LINE
  8
0
 10
-80.8784
 20
16.8909
 11
-80.8884
 21
16.9972
  0
LINE
  8
0
 10
-80.8884
 20
16.9972
 11
-80.8918
 21
17.104
  0
LINE
  8
0
 10
-80.8918
 20
17.104
 11
-80.8884
 21
17.2107
  0
LINE
  8
0
 10
-80.8884
 20
17.2107
 11
-80.8784
 21
17.317
  0
LINE
  8
0
 10
-80.8784
 20
17.317
 11
-80.8617
 21
17.4225
  0
LINE
  8
0
 10
-80.8617
 20
17.4225
 11
-80.8384
 21
17.5267
  0
LINE
  8
0
 10
-80.8384
 20
17.5267
 11
-80.8086
 21
17.6293
  0
LINE
  8
0
 10
-80.8086
 20
17.6293
 11
-80.7724
 21
17.7298
  0
LINE
  8
0
 10
-80.7724
 20
17.7298
 11
-80.73
 21
17.8278
  0
LINE
  8
0
 10
-80.73
 20
17.8278
 11
-80.6815
 21
17.9229
  0
LINE
  8
0
 10
-80.6815
 20
17.9229
 11
-80.6271
 21
18.0149
  0
LINE
  8
0
 10
-80.6271
 20
18.0149
 11
-80.5671
 21
18.1032
  0
LINE
  8
0
 10
-80.5671
 20
18.1032
 11
-80.5016
 21
18.1876
  0
LINE
  8
0
 10
-80.5016
 20
18.1876
 11
-80.431
 21
18.2677
  0
LINE
  8
0
 10
-80.431
 20
18.2677
 11
-80.3555
 21
18.3432
  0
LINE
  8
0
 10
-80.3555
 20
18.3432
 11
-80.2754
 21
18.4138
  0
LINE
  8
0
 10
-80.2754
 20
18.4138
 11
-80.191
 21
18.4793
  0
LINE
  8
0
 10
-80.191
 20
18.4793
 11
-80.1027
 21
18.5393
  0
LINE
  8
0
 10
-80.1027
 20
18.5393
 11
-80.0108
 21
18.5937
  0
LINE
  8
0
 10
-80.0108
 20
18.5937
 11
-79.9156
 21
18.6422
  0
LINE
  8
0
 10
-79.9156
 20
18.6422
 11
-79.8176
 21
18.6846
  0
LINE
  8
0
 10
-79.8176
 20
18.6846
 11
-79.7171
 21
18.7207
  0
LINE
  8
0
 10
-79.7171
 20
18.7207
 11
-79.6145
 21
18.7505
  0
LINE
  8
0
 10
-79.6145
 20
18.7505
 11
-79.5103
 21
18.7738
  0
LINE
  8
0
 10
-79.5103
 20
18.7738
 11
-79.4048
 21
18.7905
  0
LINE
  8
0
 10
-79.4048
 20
18.7905
 11
-79.2985
 21
18.8006
  0
LINE
  8
0
 10
-79.2985
 20
18.8006
 11
-79.1918
 21
18.804
  0
LINE
  8
0
 10
-79.1918
 20
18.804
 11
-79.085
 21
18.8006
  0
LINE
  8
0
 10
-79.085
 20
18.8006
 11
-78.9787
 21
18.7905
  0
LINE
  8
0
 10
-78.9787
 20
18.7905
 11
-78.8732
 21
18.7738
  0
LINE
  8
0
 10
-78.8732
 20
18.7738
 11
-78.769
 21
18.7505
  0
LINE
  8
0
 10
-78.769
 20
18.7505
 11
-78.6664
 21
18.7207
  0
LINE
  8
0
 10
-78.6664
 20
18.7207
 11
-78.566
 21
18.6846
  0
LINE
  8
0
 10
-78.566
 20
18.6846
 11
-78.468
 21
18.6422
  0
LINE
  8
0
 10
-78.468
 20
18.6422
 11
-78.3728
 21
18.5937
  0
LINE
  8
0
 10
-78.3728
 20
18.5937
 11
-78.2809
 21
18.5393
  0
LINE
  8
0
 10
-78.2809
 20
18.5393
 11
-78.1925
 21
18.4793
  0
LINE
  8
0
 10
-78.1925
 20
18.4793
 11
-78.1082
 21
18.4138
  0
LINE
  8
0
 10
-78.1082
 20
18.4138
 11
-78.028
 21
18.3432
  0
LINE
  8
0
 10
-78.028
 20
18.3432
 11
-77.9525
 21
18.2677
  0
LINE
  8
0
 10
-77.9525
 20
18.2677
 11
-77.8819
 21
18.1876
  0
LINE
  8
0
 10
-77.8819
 20
18.1876
 11
-77.8165
 21
18.1032
  0
LINE
  8
0
 10
-77.8165
 20
18.1032
 11
-77.7564
 21
18.0149
  0
LINE
  8
0
 10
-77.7564
 20
18.0149
 11
-77.7021
 21
17.9229
  0
LINE
  8
0
 10
-77.7021
 20
17.9229
 11
-77.6536
 21
17.8278
  0
LINE
  8
0
 10
-77.6536
 20
17.8278
 11
-77.6112
 21
17.7298
  0
LINE
  8
0
 10
-77.6112
 20
17.7298
 11
-77.575
 21
17.6293
  0
LINE
  8
0
 10
-77.575
 20
17.6293
 11
-77.5452
 21
17.5267
  0
LINE
  8
0
 10
-77.5452
 20
17.5267
 11
-77.5219
 21
17.4225
  0
LINE
  8
0
 10
-77.5219
 20
17.4225
 11
-77.5052
 21
17.317
  0
LINE
  8
0
 10
-77.5052
 20
17.317
 11
-77.4951
 21
17.2107
  0
LINE
  8
0
 10
-77.4951
 20
17.2107
 11
-77.4918
 21
17.104
  0
LINE
  8
0
 10
-77.4918
 20
17.104
 11
-77.4951
 21
16.9972
  0
LINE
  8
0
 10
-77.4951
 20
16.9972
 11
-77.5052
 21
16.8909
  0
LINE
  8
0
 10
-77.5052
 20
16.8909
 11
-77.5219
 21
16.7854
  0
LINE
  8
0
 10
-77.5219
 20
16.7854
 11
-77.5452
 21
16.6812
  0
LINE
  8
0
 10
-77.5452
 20
16.6812
 11
-77.575
 21
16.5786
  0
LINE
  8
0
 10
-77.575
 20
16.5786
 11
-77.6112
 21
16.4781
  0
LINE
  8
0
 10
-77.6112
 20
16.4781
 11
-77.6536
 21
16.3801
  0
LINE
  8
0
 10
-77.6536
 20
16.3801
 11
-77.7021
 21
16.285
  0
LINE
  8
0
 10
-77.7021
 20
16.285
 11
-77.7564
 21
16.1931
  0
LINE
  8
0
 10
-77.7564
 20
16.1931
 11
-77.8165
 21
16.1047
  0
LINE
  8
0
 10
-77.8165
 20
16.1047
 11
-77.8819
 21
16.0203
  0
LINE
  8
0
 10
-77.8819
 20
16.0203
 11
-77.9525
 21
15.9402
  0
LINE
  8
0
 10
-77.9525
 20
15.9402
 11
-78.028
 21
15.8647
  0
LINE
  8
0
 10
-78.028
 20
15.8647
 11
-78.1082
 21
15.7941
  0
LINE
  8
0
 10
-78.1082
 20
15.7941
 11
-78.1925
 21
15.7286
  0
LINE
  8
0
 10
-78.1925
 20
15.7286
 11
-78.2809
 21
15.6686
  0
LINE
  8
0
 10
-78.2809
 20
15.6686
 11
-78.3728
 21
15.6142
  0
LINE
  8
0
 10
-78.3728
 20
15.6142
 11
-78.468
 21
15.5658
  0
LINE
  8
0
 10
-78.468
 20
15.5658
 11
-78.566
 21
15.5233
  0
LINE
  8
0
 10
-78.566
 20
15.5233
 11
-78.6664
 21
15.4872
  0
LINE
  8
0
 10
-78.6664
 20
15.4872
 11
-78.769
 21
15.4574
  0
LINE
  8
0
 10
-78.769
 20
15.4574
 11
-78.8732
 21
15.4341
  0
LINE
  8
0
 10
-78.8732
 20
15.4341
 11
-78.9787
 21
15.4174
  0
LINE
  8
0
 10
-78.9787
 20
15.4174
 11
-79.085
 21
15.4073
  0
LINE
  8
0
 10
-79.085
 20
15.4073
 11
-79.1918
 21
15.4039
  0
LINE
  8
0
 10
-79.1918
 20
15.4039
 11
-79.2985
 21
15.4073
  0
LINE
  8
0
 10
71.2346
 20
-13.1781
 11
71.1283
 21
-13.1681
  0
LINE
  8
0
 10
71.1283
 20
-13.1681
 11
71.0229
 21
-13.1514
  0
LINE
  8
0
 10
71.0229
 20
-13.1514
 11
70.9186
 21
-13.1281
  0
LINE
  8
0
 10
70.9186
 20
-13.1281
 11
70.8161
 21
-13.0983
  0
LINE
  8
0
 10
70.8161
 20
-13.0983
 11
70.7156
 21
-13.0621
  0
LINE
  8
0
 10
70.7156
 20
-13.0621
 11
70.6176
 21
-13.0197
  0
LINE
  8
0
 10
70.6176
 20
-13.0197
 11
70.5224
 21
-12.9712
  0
LINE
  8
0
 10
70.5224
 20
-12.9712
 11
70.4305
 21
-12.9168
  0
LINE
  8
0
 10
70.4305
 20
-12.9168
 11
70.3422
 21
-12.8568
  0
LINE
  8
0
 10
70.3422
 20
-12.8568
 11
70.2578
 21
-12.7914
  0
LINE
  8
0
 10
70.2578
 20
-12.7914
 11
70.1777
 21
-12.7207
  0
LINE
  8
0
 10
70.1777
 20
-12.7207
 11
70.1022
 21
-12.6452
  0
LINE
  8
0
 10
70.1022
 20
-12.6452
 11
70.0315
 21
-12.5651
  0
LINE
  8
0
 10
70.0315
 20
-12.5651
 11
69.9661
 21
-12.4807
  0
LINE
  8
0
 10
69.9661
 20
-12.4807
 11
69.906
 21
-12.3924
  0
LINE
  8
0
 10
69.906
 20
-12.3924
 11
69.8517
 21
-12.3005
  0
LINE
  8
0
 10
69.8517
 20
-12.3005
 11
69.8032
 21
-12.2053
  0
LINE
  8
0
 10
69.8032
 20
-12.2053
 11
69.7608
 21
-12.1073
  0
LINE
  8
0
 10
69.7608
 20
-12.1073
 11
69.7246
 21
-12.0068
  0
LINE
  8
0
 10
69.7246
 20
-12.0068
 11
69.6948
 21
-11.9043
  0
LINE
  8
0
 10
69.6948
 20
-11.9043
 11
69.6715
 21
-11.8
  0
LINE
  8
0
 10
69.6715
 20
-11.8
 11
69.6548
 21
-11.6945
  0
LINE
  8
0
 10
69.6548
 20
-11.6945
 11
69.6448
 21
-11.5882
  0
LINE
  8
0
 10
69.6448
 20
-11.5882
 11
69.6414
 21
-11.4815
  0
LINE
  8
0
 10
69.6414
 20
-11.4815
 11
69.6448
 21
-11.3747
  0
LINE
  8
0
 10
69.6448
 20
-11.3747
 11
69.6548
 21
-11.2684
  0
LINE
  8
0
 10
69.6548
 20
-11.2684
 11
69.6715
 21
-11.1629
  0
LINE
  8
0
 10
69.6715
 20
-11.1629
 11
69.6948
 21
-11.0587
  0
LINE
  8
0
 10
69.6948
 20
-11.0587
 11
69.7246
 21
-10.9561
  0
LINE
  8
0
 10
69.7246
 20
-10.9561
 11
69.7608
 21
-10.8557
  0
LINE
  8
0
 10
69.7608
 20
-10.8557
 11
69.8032
 21
-10.7576
  0
LINE
  8
0
 10
69.8032
 20
-10.7576
 11
69.8517
 21
-10.6625
  0
LINE
  8
0
 10
69.8517
 20
-10.6625
 11
69.906
 21
-10.5706
  0
LINE
  8
0
 10
69.906
 20
-10.5706
 11
69.9661
 21
-10.4822
  0
LINE
  8
0
 10
69.9661
 20
-10.4822
 11
70.0315
 21
-10.3979
  0
LINE
  8
0
 10
70.0315
 20
-10.3979
 11
70.1022
 21
-10.3177
  0
LINE
  8
0
 10
70.1022
 20
-10.3177
 11
70.1777
 21
-10.2422
  0
LINE
  8
0
 10
70.1777
 20
-10.2422
 11
70.2578
 21
-10.1716
  0
LINE
  8
0
 10
70.2578
 20
-10.1716
 11
70.3422
 21
-10.1061
  0
LINE
  8
0
 10
70.3422
 20
-10.1061
 11
70.4305
 21
-10.0461
  0
LINE
  8
0
 10
70.4305
 20
-10.0461
 11
70.5224
 21
-9.99174
  0
LINE
  8
0
 10
70.5224
 20
-9.99174
 11
70.6176
 21
-9.94327
  0
LINE
  8
0
 10
70.6176
 20
-9.94327
 11
70.7156
 21
-9.90085
  0
LINE
  8
0
 10
70.7156
 20
-9.90085
 11
70.8161
 21
-9.86467
  0
LINE
  8
0
 10
70.8161
 20
-9.86467
 11
70.9186
 21
-9.83488
  0
LINE
  8
0
 10
70.9186
 20
-9.83488
 11
71.0229
 21
-9.81158
  0
LINE
  8
0
 10
71.0229
 20
-9.81158
 11
71.1283
 21
-9.79488
  0
LINE
  8
0
 10
71.1283
 20
-9.79488
 11
71.2346
 21
-9.78482
  0
LINE
  8
0
 10
71.2346
 20
-9.78482
 11
71.3414
 21
-9.78148
  0
LINE
  8
0
 10
71.3414
 20
-9.78148
 11
71.4482
 21
-9.78482
  0
LINE
  8
0
 10
71.4482
 20
-9.78482
 11
71.5545
 21
-9.79488
  0
LINE
  8
0
 10
71.5545
 20
-9.79488
 11
71.6599
 21
-9.81158
  0
LINE
  8
0
 10
71.6599
 20
-9.81158
 11
71.7642
 21
-9.83488
  0
LINE
  8
0
 10
71.7642
 20
-9.83488
 11
71.8667
 21
-9.86467
  0
LINE
  8
0
 10
71.8667
 20
-9.86467
 11
71.9672
 21
-9.90085
  0
LINE
  8
0
 10
71.9672
 20
-9.90085
 11
72.0652
 21
-9.94327
  0
LINE
  8
0
 10
72.0652
 20
-9.94327
 11
72.1604
 21
-9.99174
  0
LINE
  8
0
 10
72.1604
 20
-9.99174
 11
72.2523
 21
-10.0461
  0
LINE
  8
0
 10
72.2523
 20
-10.0461
 11
72.3406
 21
-10.1061
  0
LINE
  8
0
 10
72.3406
 20
-10.1061
 11
72.425
 21
-10.1716
  0
LINE
  8
0
 10
72.425
 20
-10.1716
 11
72.5051
 21
-10.2422
  0
LINE
  8
0
 10
72.5051
 20
-10.2422
 11
72.5806
 21
-10.3177
  0
LINE
  8
0
 10
72.5806
 20
-10.3177
 11
72.6513
 21
-10.3979
  0
LINE
  8
0
 10
72.6513
 20
-10.3979
 11
72.7167
 21
-10.4822
  0
LINE
  8
0
 10
72.7167
 20
-10.4822
 11
72.7768
 21
-10.5706
  0
LINE
  8
0
 10
72.7768
 20
-10.5706
 11
72.8311
 21
-10.6625
  0
LINE
  8
0
 10
72.8311
 20
-10.6625
 11
72.8796
 21
-10.7576
  0
LINE
  8
0
 10
72.8796
 20
-10.7576
 11
72.922
 21
-10.8557
  0
LINE
  8
0
 10
72.922
 20
-10.8557
 11
72.9582
 21
-10.9561
  0
LINE
  8
0
 10
72.9582
 20
-10.9561
 11
72.988
 21
-11.0587
  0
LINE
  8
0
 10
72.988
 20
-11.0587
 11
73.0113
 21
-11.1629
  0
LINE
  8
0
 10
73.0113
 20
-11.1629
 11
73.028
 21
-11.2684
  0
LINE
  8
0
 10
73.028
 20
-11.2684
 11
73.038
 21
-11.3747
  0
LINE
  8
0
 10
73.038
 20
-11.3747
 11
73.0414
 21
-11.4815
  0
LINE
  8
0
 10
73.0414
 20
-11.4815
 11
73.038
 21
-11.5882
  0
LINE
  8
0
 10
73.038
 20
-11.5882
 11
73.028
 21
-11.6945
  0
LINE
  8
0
 10
73.028
 20
-11.6945
 11
73.0113
 21
-11.8
  0
LINE
  8
0
 10
73.0113
 20
-11.8
 11
72.988
 21
-11.9043
  0
LINE
  8
0
 10
72.988
 20
-11.9043
 11
72.9582
 21
-12.0068
  0
LINE
  8
0
 10
72.9582
 20
-12.0068
 11
72.922
 21
-12.1073
  0
LINE
  8
0
 10
72.922
 20
-12.1073
 11
72.8796
 21
-12.2053
  0
LINE
  8
0
 10
72.8796
 20
-12.2053
 11
72.8311
 21
-12.3005
  0
LINE
  8
0
 10
72.8311
 20
-12.3005
 11
72.7768
 21
-12.3924
  0
LINE
  8
0
 10
72.7768
 20
-12.3924
 11
72.7167
 21
-12.4807
  0
LINE
  8
0
 10
72.7167
 20
-12.4807
 11
72.6513
 21
-12.5651
  0
LINE
  8
0
 10
72.6513
 20
-12.5651
 11
72.5806
 21
-12.6452
  0
LINE
  8
0
 10
72.5806
 20
-12.6452
 11
72.5051
 21
-12.7207
  0
LINE
  8
0
 10
72.5051
 20
-12.7207
 11
72.425
 21
-12.7914
  0
LINE
  8
0
 10
72.425
 20
-12.7914
 11
72.3406
 21
-12.8568
  0
LINE
  8
0
 10
72.3406
 20
-12.8568
 11
72.2523
 21
-12.9168
  0
LINE
  8
0
 10
72.2523
 20
-12.9168
 11
72.1604
 21
-12.9712
  0
LINE
  8
0
 10
72.1604
 20
-12.9712
 11
72.0652
 21
-13.0197
  0
LINE
  8
0
 10
72.0652
 20
-13.0197
 11
71.9672
 21
-13.0621
  0
LINE
  8
0
 10
71.9672
 20
-13.0621
 11
71.8667
 21
-13.0983
  0
LINE
  8
0
 10
71.8667
 20
-13.0983
 11
71.7642
 21
-13.1281
  0
LINE
  8
0
 10
71.7642
 20
-13.1281
 11
71.6599
 21
-13.1514
  0
LINE
  8
0
 10
71.6599
 20
-13.1514
 11
71.5545
 21
-13.1681
  0
LINE
  8
0
 10
71.5545
 20
-13.1681
 11
71.4482
 21
-13.1781
  0
LINE
  8
0
 10
71.4482
 20
-13.1781
 11
71.3414
 21
-13.1815
  0
LINE
  8
0
 10
71.3414
 20
-13.1815
 11
71.2346
 21
-13.1781
  0
LINE
  8
0
 10
-79.2985
 20
-30.8006
 11
-79.4048
 21
-30.7905
  0
LINE
  8
0
 10
-79.4048
 20
-30.7905
 11
-79.5103
 21
-30.7738
  0
LINE
  8
0
 10
-79.5103
 20
-30.7738
 11
-79.6145
 21
-30.7505
  0
LINE
  8
0
 10
-79.6145
 20
-30.7505
 11
-79.7171
 21
-30.7207
  0
LINE
  8
0
 10
-79.7171
 20
-30.7207
 11
-79.8176
 21
-30.6846
  0
LINE
  8
0
 10
-79.8176
 20
-30.6846
 11
-79.9156
 21
-30.6422
  0
LINE
  8
0
 10
-79.9156
 20
-30.6422
 11
-80.0108
 21
-30.5937
  0
LINE
  8
0
 10
-80.0108
 20
-30.5937
 11
-80.1027
 21
-30.5393
  0
LINE
  8
0
 10
-80.1027
 20
-30.5393
 11
-80.191
 21
-30.4793
  0
LINE
  8
0
 10
-80.191
 20
-30.4793
 11
-80.2754
 21
-30.4138
  0
LINE
  8
0
 10
-80.2754
 20
-30.4138
 11
-80.3555
 21
-30.3432
  0
LINE
  8
0
 10
-80.3555
 20
-30.3432
 11
-80.431
 21
-30.2677
  0
LINE
  8
0
 10
-80.431
 20
-30.2677
 11
-80.5016
 21
-30.1876
  0
LINE
  8
0
 10
-80.5016
 20
-30.1876
 11
-80.5671
 21
-30.1032
  0
LINE
  8
0
 10
-80.5671
 20
-30.1032
 11
-80.6271
 21
-30.0149
  0
LINE
  8
0
 10
-80.6271
 20
-30.0149
 11
-80.6815
 21
-29.9229
  0
LINE
  8
0
 10
-80.6815
 20
-29.9229
 11
-80.73
 21
-29.8278
  0
LINE
  8
0
 10
-80.73
 20
-29.8278
 11
-80.7724
 21
-29.7298
  0
LINE
  8
0
 10
-80.7724
 20
-29.7298
 11
-80.8086
 21
-29.6293
  0
LINE
  8
0
 10
-80.8086
 20
-29.6293
 11
-80.8384
 21
-29.5267
  0
LINE
  8
0
 10
-80.8384
 20
-29.5267
 11
-80.8617
 21
-29.4225
  0
LINE
  8
0
 10
-80.8617
 20
-29.4225
 11
-80.8784
 21
-29.317
  0
LINE
  8
0
 10
-80.8784
 20
-29.317
 11
-80.8884
 21
-29.2107
  0
LINE
  8
0
 10
-80.8884
 20
-29.2107
 11
-80.8918
 21
-29.104
  0
LINE
  8
0
 10
-80.8918
 20
-29.104
 11
-80.8884
 21
-28.9972
  0
LINE
  8
0
 10
-80.8884
 20
-28.9972
 11
-80.8784
 21
-28.8909
  0
LINE
  8
0
 10
-80.8784
 20
-28.8909
 11
-80.8617
 21
-28.7854
  0
LINE
  8
0
 10
-80.8617
 20
-28.7854
 11
-80.8384
 21
-28.6812
  0
LINE
  8
0
 10
-80.8384
 20
-28.6812
 11
-80.8086
 21
-28.5786
  0
LINE
  8
0
 10
-80.8086
 20
-28.5786
 11
-80.7724
 21
-28.4781
  0
LINE
  8
0
 10
-80.7724
 20
-28.4781
 11
-80.73
 21
-28.3801
  0
LINE
  8
0
 10
-80.73
 20
-28.3801
 11
-80.6815
 21
-28.285
  0
LINE
  8
0
 10
-80.6815
 20
-28.285
 11
-80.6271
 21
-28.1931
  0
LINE
  8
0
 10
-80.6271
 20
-28.1931
 11
-80.5671
 21
-28.1047
  0
LINE
  8
0
 10
-80.5671
 20
-28.1047
 11
-80.5016
 21
-28.0203
  0
LINE
  8
0
 10
-80.5016
 20
-28.0203
 11
-80.431
 21
-27.9402
  0
LINE
  8
0
 10
-80.431
 20
-27.9402
 11
-80.3555
 21
-27.8647
  0
LINE
  8
0
 10
-80.3555
 20
-27.8647
 11
-80.2754
 21
-27.7941
  0
LINE
  8
0
 10
-80.2754
 20
-27.7941
 11
-80.191
 21
-27.7286
  0
LINE
  8
0
 10
-80.191
 20
-27.7286
 11
-80.1027
 21
-27.6686
  0
LINE
  8
0
 10
-80.1027
 20
-27.6686
 11
-80.0108
 21
-27.6142
  0
LINE
  8
0
 10
-80.0108
 20
-27.6142
 11
-79.9156
 21
-27.5658
  0
LINE
  8
0
 10
-79.9156
 20
-27.5658
 11
-79.8176
 21
-27.5233
  0
LINE
  8
0
 10
-79.8176
 20
-27.5233
 11
-79.7171
 21
-27.4872
  0
LINE
  8
0
 10
-79.7171
 20
-27.4872
 11
-79.6145
 21
-27.4574
  0
LINE
  8
0
 10
-79.6145
 20
-27.4574
 11
-79.5103
 21
-27.4341
  0
LINE
  8
0
 10
-79.5103
 20
-27.4341
 11
-79.4048
 21
-27.4174
  0
LINE
  8
0
 10
-79.4048
 20
-27.4174
 11
-79.2985
 21
-27.4073
  0
LINE
  8
0
 10
-79.2985
 20
-27.4073
 11
-79.1918
 21
-27.4039
  0
LINE
  8
0
 10
-79.1918
 20
-27.4039
 11
-79.085
 21
-27.4073
  0
LINE
  8
0
 10
-79.085
 20
-27.4073
 11
-78.9787
 21
-27.4174
  0
LINE
  8
0
 10
-78.9787
 20
-27.4174
 11
-78.8732
 21
-27.4341
  0
LINE
  8
0
 10
-78.8732
 20
-27.4341
 11
-78.769
 21
-27.4574
  0
LINE
  8
0
 10
-78.769
 20
-27.4574
 11
-78.6664
 21
-27.4872
  0
LINE
  8
0
 10
-78.6664
 20
-27.4872
 11
-78.566
 21
-27.5233
  0
LINE
  8
0
 10
-78.566
 20
-27.5233
 11
-78.468
 21
-27.5658
  0
LINE
  8
0
 10
-78.468
 20
-27.5658
 11
-78.3728
 21
-27.6142
  0
LINE
  8
0
 10
-78.3728
 20
-27.6142
 11
-78.2809
 21
-27.6686
  0
LINE
  8
0
 10
-78.2809
 20
-27.6686
 11
-78.1925
 21
-27.7286
  0
LINE
  8
0
 10
-78.1925
 20
-27.7286
 11
-78.1082
 21
-27.7941
  0
LINE
  8
0
 10
-78.1082
 20
-27.7941
 11
-78.028
 21
-27.8647
  0
LINE
  8
0
 10
-78.028
 20
-27.8647
 11
-77.9525
 21
-27.9402
  0
LINE
  8
0
 10
-77.9525
 20
-27.9402
 11
-77.8819
 21
-28.0203
  0
LINE
  8
0
 10
-77.8819
 20
-28.0203
 11
-77.8165
 21
-28.1047
  0
LINE
  8
0
 10
-77.8165
 20
-28.1047
 11
-77.7564
 21
-28.1931
  0
LINE
  8
0
 10
-77.7564
 20
-28.1931
 11
-77.7021
 21
-28.285
  0
LINE
  8
0
 10
-77.7021
 20
-28.285
 11
-77.6536
 21
-28.3801
  0
LINE
  8
0
 10
-77.6536
 20
-28.3801
 11
-77.6112
 21
-28.4781
  0
LINE
  8
0
 10
-77.6112
 20
-28.4781
 11
-77.575
 21
-28.5786
  0
LINE
  8
0
 10
-77.575
 20
-28.5786
 11
-77.5452
 21
-28.6812
  0
LINE
  8
0
 10
-77.5452
 20
-28.6812
 11
-77.5219
 21
-28.7854
  0
LINE
  8
0
 10
-77.5219
 20
-28.7854
 11
-77.5052
 21
-28.8909
  0
LINE
  8
0
 10
-77.5052
 20
-28.8909
 11
-77.4951
 21
-28.9972
  0
LINE
  8
0
 10
-77.4951
 20
-28.9972
 11
-77.4918
 21
-29.104
  0
LINE
  8
0
 10
-77.4918
 20
-29.104
 11
-77.4951
 21
-29.2107
  0
LINE
  8
0
 10
-77.4951
 20
-29.2107
 11
-77.5052
 21
-29.317
  0
LINE
  8
0
 10
-77.5052
 20
-29.317
 11
-77.5219
 21
-29.4225
  0
LINE
  8
0
 10
-77.5219
 20
-29.4225
 11
-77.5452
 21
-29.5267
  0
LINE
  8
0
 10
-77.5452
 20
-29.5267
 11
-77.575
 21
-29.6293
  0
LINE
  8
0
 10
-77.575
 20
-29.6293
 11
-77.6112
 21
-29.7298
  0
LINE
  8
0
 10
-77.6112
 20
-29.7298
 11
-77.6536
 21
-29.8278
  0
LINE
  8
0
 10
-77.6536
 20
-29.8278
 11
-77.7021
 21
-29.9229
  0
LINE
  8
0
 10
-77.7021
 20
-29.9229
 11
-77.7564
 21
-30.0149
  0
LINE
  8
0
 10
-77.7564
 20
-30.0149
 11
-77.8165
 21
-30.1032
  0
LINE
  8
0
 10
-77.8165
 20
-30.1032
 11
-77.8819
 21
-30.1876
  0
LINE
  8
0
 10
-77.8819
 20
-30.1876
 11
-77.9525
 21
-30.2677
  0
LINE
  8
0
 10
-77.9525
 20
-30.2677
 11
-78.028
 21
-30.3432
  0
LINE
  8
0
 10
-78.028
 20
-30.3432
 11
-78.1082
 21
-30.4138
  0
LINE
  8
0
 10
-78.1082
 20
-30.4138
 11
-78.1925
 21
-30.4793
  0
LINE
  8
0
 10
-78.1925
 20
-30.4793
 11
-78.2809
 21
-30.5393
  0
LINE
  8
0
 10
-78.2809
 20
-30.5393
 11
-78.3728
 21
-30.5937
  0
LINE
  8
0
 10
-78.3728
 20
-30.5937
 11
-78.468
 21
-30.6422
  0
LINE
  8
0
 10
-78.468
 20
-30.6422
 11
-78.566
 21
-30.6846
  0
LINE
  8
0
 10
-78.566
 20
-30.6846
 11
-78.6664
 21
-30.7207
  0
LINE
  8
0
 10
-78.6664
 20
-30.7207
 11
-78.769
 21
-30.7505
  0
LINE
  8
0
 10
-78.769
 20
-30.7505
 11
-78.8732
 21
-30.7738
  0
LINE
  8
0
 10
-78.8732
 20
-30.7738
 11
-78.9787
 21
-30.7905
  0
LINE
  8
0
 10
-78.9787
 20
-30.7905
 11
-79.085
 21
-30.8006
  0
LINE
  8
0
 10
-79.085
 20
-30.8006
 11
-79.1918
 21
-30.804
  0
LINE
  8
0
 10
-79.1918
 20
-30.804
 11
-79.2985
 21
-30.8006
  0
LINE
  8
0
 10
-19.5665
 20
-33.9421
 11
-19.6728
 21
-33.932
  0
LINE
  8
0
 10
-19.6728
 20
-33.932
 11
-19.7783
 21
-33.9153
  0
LINE
  8
0
 10
-19.7783
 20
-33.9153
 11
-19.8825
 21
-33.892
  0
LINE
  8
0
 10
-19.8825
 20
-33.892
 11
-19.9851
 21
-33.8622
  0
LINE
  8
0
 10
-19.9851
 20
-33.8622
 11
-20.0856
 21
-33.8261
  0
LINE
  8
0
 10
-20.0856
 20
-33.8261
 11
-20.1836
 21
-33.7836
  0
LINE
  8
0
 10
-20.1836
 20
-33.7836
 11
-20.2787
 21
-33.7352
  0
LINE
  8
0
 10
-20.2787
 20
-33.7352
 11
-20.3707
 21
-33.6808
  0
LINE
  8
0
 10
-20.3707
 20
-33.6808
 11
-20.459
 21
-33.6208
  0
LINE
  8
0
 10
-20.459
 20
-33.6208
 11
-20.5434
 21
-33.5553
  0
LINE
  8
0
 10
-20.5434
 20
-33.5553
 11
-20.6235
 21
-33.4847
  0
LINE
  8
0
 10
-20.6235
 20
-33.4847
 11
-20.699
 21
-33.4092
  0
LINE
  8
0
 10
-20.699
 20
-33.4092
 11
-20.7696
 21
-33.3291
  0
LINE
  8
0
 10
-20.7696
 20
-33.3291
 11
-20.8351
 21
-33.2447
  0
LINE
  8
0
 10
-20.8351
 20
-33.2447
 11
-20.8951
 21
-33.1563
  0
LINE
  8
0
 10
-20.8951
 20
-33.1563
 11
-20.9495
 21
-33.0644
  0
LINE
  8
0
 10
-20.9495
 20
-33.0644
 11
-20.998
 21
-32.9693
  0
LINE
  8
0
 10
-20.998
 20
-32.9693
 11
-21.0404
 21
-32.8712
  0
LINE
  8
0
 10
-21.0404
 20
-32.8712
 11
-21.0765
 21
-32.7708
  0
LINE
  8
0
 10
-21.0765
 20
-32.7708
 11
-21.1063
 21
-32.6682
  0
LINE
  8
0
 10
-21.1063
 20
-32.6682
 11
-21.1296
 21
-32.564
  0
LINE
  8
0
 10
-21.1296
 20
-32.564
 11
-21.1463
 21
-32.4585
  0
LINE
  8
0
 10
-21.1463
 20
-32.4585
 11
-21.1564
 21
-32.3522
  0
LINE
  8
0
 10
-21.1564
 20
-32.3522
 11
-21.1597
 21
-32.2454
  0
LINE
  8
0
 10
-21.1597
 20
-32.2454
 11
-21.1564
 21
-32.1387
  0
LINE
  8
0
 10
-21.1564
 20
-32.1387
 11
-21.1463
 21
-32.0324
  0
LINE
  8
0
 10
-21.1463
 20
-32.0324
 11
-21.1296
 21
-31.9269
  0
LINE
  8
0
 10
-21.1296
 20
-31.9269
 11
-21.1063
 21
-31.8227
  0
LINE
  8
0
 10
-21.1063
 20
-31.8227
 11
-21.0765
 21
-31.7201
  0
LINE
  8
0
 10
-21.0765
 20
-31.7201
 11
-21.0404
 21
-31.6196
  0
LINE
  8
0
 10
-21.0404
 20
-31.6196
 11
-20.998
 21
-31.5216
  0
LINE
  8
0
 10
-20.998
 20
-31.5216
 11
-20.9495
 21
-31.4265
  0
LINE
  8
0
 10
-20.9495
 20
-31.4265
 11
-20.8951
 21
-31.3345
  0
LINE
  8
0
 10
-20.8951
 20
-31.3345
 11
-20.8351
 21
-31.2462
  0
LINE
  8
0
 10
-20.8351
 20
-31.2462
 11
-20.7696
 21
-31.1618
  0
LINE
  8
0
 10
-20.7696
 20
-31.1618
 11
-20.699
 21
-31.0817
  0
LINE
  8
0
 10
-20.699
 20
-31.0817
 11
-20.6235
 21
-31.0062
  0
LINE
  8
0
 10
-20.6235
 20
-31.0062
 11
-20.5434
 21
-30.9356
  0
LINE
  8
0
 10
-20.5434
 20
-30.9356
 11
-20.459
 21
-30.8701
  0
LINE
  8
0
 10
-20.459
 20
-30.8701
 11
-20.3707
 21
-30.8101
  0
LINE
  8
0
 10
-20.3707
 20
-30.8101
 11
-20.2787
 21
-30.7557
  0
LINE
  8
0
 10
-20.2787
 20
-30.7557
 11
-20.1836
 21
-30.7072
  0
LINE
  8
0
 10
-20.1836
 20
-30.7072
 11
-20.0856
 21
-30.6648
  0
LINE
  8
0
 10
-20.0856
 20
-30.6648
 11
-19.9851
 21
-30.6286
  0
LINE
  8
0
 10
-19.9851
 20
-30.6286
 11
-19.8825
 21
-30.5988
  0
LINE
  8
0
 10
-19.8825
 20
-30.5988
 11
-19.7783
 21
-30.5755
  0
LINE
  8
0
 10
-19.7783
 20
-30.5755
 11
-19.6728
 21
-30.5588
  0
LINE
  8
0
 10
-19.6728
 20
-30.5588
 11
-19.5665
 21
-30.5488
  0
LINE
  8
0
 10
-19.5665
 20
-30.5488
 11
-19.4597
 21
-30.5454
  0
LINE
  8
0
 10
-19.4597
 20
-30.5454
 11
-19.353
 21
-30.5488
  0
LINE
  8
0
 10
-19.353
 20
-30.5488
 11
-19.2467
 21
-30.5588
  0
LINE
  8
0
 10
-19.2467
 20
-30.5588
 11
-19.1412
 21
-30.5755
  0
LINE
  8
0
 10
-19.1412
 20
-30.5755
 11
-19.037
 21
-30.5988
  0
LINE
  8
0
 10
-19.037
 20
-30.5988
 11
-18.9344
 21
-30.6286
  0
LINE
  8
0
 10
-18.9344
 20
-30.6286
 11
-18.8339
 21
-30.6648
  0
LINE
  8
0
 10
-18.8339
 20
-30.6648
 11
-18.7359
 21
-30.7072
  0
LINE
  8
0
 10
-18.7359
 20
-30.7072
 11
-18.6408
 21
-30.7557
  0
LINE
  8
0
 10
-18.6408
 20
-30.7557
 11
-18.5488
 21
-30.8101
  0
LINE
  8
0
 10
-18.5488
 20
-30.8101
 11
-18.4605
 21
-30.8701
  0
LINE
  8
0
 10
-18.4605
 20
-30.8701
 11
-18.3761
 21
-30.9356
  0
LINE
  8
0
 10
-18.3761
 20
-30.9356
 11
-18.296
 21
-31.0062
  0
LINE
  8
0
 10
-18.296
 20
-31.0062
 11
-18.2205
 21
-31.0817
  0
LINE
  8
0
 10
-18.2205
 20
-31.0817
 11
-18.1499
 21
-31.1618
  0
LINE
  8
0
 10
-18.1499
 20
-31.1618
 11
-18.0844
 21
-31.2462
  0
LINE
  8
0
 10
-18.0844
 20
-31.2462
 11
-18.0244
 21
-31.3345
  0
LINE
  8
0
 10
-18.0244
 20
-31.3345
 11
-17.97
 21
-31.4265
  0
LINE
  8
0
 10
-17.97
 20
-31.4265
 11
-17.9215
 21
-31.5216
  0
LINE
  8
0
 10
-17.9215
 20
-31.5216
 11
-17.8791
 21
-31.6196
  0
LINE
  8
0
 10
-17.8791
 20
-31.6196
 11
-17.843
 21
-31.7201
  0
LINE
  8
0
 10
-17.843
 20
-31.7201
 11
-17.8132
 21
-31.8227
  0
LINE
  8
0
 10
-17.8132
 20
-31.8227
 11
-17.7899
 21
-31.9269
  0
LINE
  8
0
 10
-17.7899
 20
-31.9269
 11
-17.7731
 21
-32.0324
  0
LINE
  8
0
 10
-17.7731
 20
-32.0324
 11
-17.7631
 21
-32.1387
  0
LINE
  8
0
 10
-17.7631
 20
-32.1387
 11
-17.7598
 21
-32.2454
  0
LINE
  8
0
 10
-17.7598
 20
-32.2454
 11
-17.7631
 21
-32.3522
  0
LINE
  8
0
 10
-17.7631
 20
-32.3522
 11
-17.7731
 21
-32.4585
  0
LINE
  8
0
 10
-17.7731
 20
-32.4585
 11
-17.7899
 21
-32.564
  0
LINE
  8
0
 10
-17.7899
 20
-32.564
 11
-17.8132
 21
-32.6682
  0
LINE
  8
0
 10
-17.8132
 20
-32.6682
 11
-17.843
 21
-32.7708
  0
LINE
  8
0
 10
-17.843
 20
-32.7708
 11
-17.8791
 21
-32.8712
  0
LINE
  8
0
 10
-17.8791
 20
-32.8712
 11
-17.9215
 21
-32.9693
  0
LINE
  8
0
 10
-17.9215
 20
-32.9693
 11
-17.97
 21
-33.0644
  0
LINE
  8
0
 10
-17.97
 20
-33.0644
 11
-18.0244
 21
-33.1563
  0
LINE
  8
0
 10
-18.0244
 20
-33.1563
 11
-18.0844
 21
-33.2447
  0
LINE
  8
0
 10
-18.0844
 20
-33.2447
 11
-18.1499
 21
-33.3291
  0
LINE
  8
0
 10
-18.1499
 20
-33.3291
 11
-18.2205
 21
-33.4092
  0
LINE
  8
0
 10
-18.2205
 20
-33.4092
 11
-18.296
 21
-33.4847
  0
LINE
  8
0
 10
-18.296
 20
-33.4847
 11
-18.3761
 21
-33.5553
  0
LINE
  8
0
 10
-18.3761
 20
-33.5553
 11
-18.4605
 21
-33.6208
  0
LINE
  8
0
 10
-18.4605
 20
-33.6208
 11
-18.5488
 21
-33.6808
  0
LINE
  8
0
 10
-18.5488
 20
-33.6808
 11
-18.6408
 21
-33.7352
  0
LINE
  8
0
 10
-18.6408
 20
-33.7352
 11
-18.7359
 21
-33.7836
  0
LINE
  8
0
 10
-18.7359
 20
-33.7836
 11
-18.8339
 21
-33.8261
  0
LINE
  8
0
 10
-18.8339
 20
-33.8261
 11
-18.9344
 21
-33.8622
  0
LINE
  8
0
 10
-18.9344
 20
-33.8622
 11
-19.037
 21
-33.892
  0
LINE
  8
0
 10
-19.037
 20
-33.892
 11
-19.1412
 21
-33.9153
  0
LINE
  8
0
 10
-19.1412
 20
-33.9153
 11
-19.2467
 21
-33.932
  0
LINE
  8
0
 10
-19.2467
 20
-33.932
 11
-19.353
 21
-33.9421
  0
LINE
  8
0
 10
-19.353
 20
-33.9421
 11
-19.4597
 21
-33.9454
  0
LINE
  8
0
 10
-19.4597
 20
-33.9454
 11
-19.5665
 21
-33.9421
  0
ENDSEC
  0
SECTION
  2
OBJECTS
  0
DICTIONARY
  0
ENDSEC
  0
EOF
